<svg width="31" height="42" viewBox="0 0 31 42" fill="none" xmlns="http://www.w3.org/2000/svg">
<path d="M14.7111 41.9655C14.1619 41.8955 13.6127 41.8411 13.0714 41.7479C10.4716 41.3526 8.01879 40.2994 5.95025 38.6902C3.88171 37.081 2.26746 34.9703 1.26363 32.5621C0.231474 30.1644 -0.178494 27.5489 0.0710897 24.954C0.429861 18.9098 2.26613 13.0425 5.42184 7.85709C6.69276 5.62429 8.46103 3.70799 10.5921 2.25396C12.1118 1.17474 13.9479 0.621173 15.8169 0.678762C17.6859 0.73635 19.4837 1.40189 20.9327 2.57259C23.1103 4.25009 24.9 6.36996 26.1815 8.78965C28.4222 12.7589 29.9162 17.0985 30.5908 21.5968C30.9773 23.7294 31.0906 25.9018 30.9281 28.0625C30.6033 31.3635 29.2114 34.4724 26.9596 36.9269C24.7078 39.3814 21.7163 41.0504 18.43 41.6857C17.7396 41.8178 17.0334 41.8722 16.343 41.9655H14.7111ZM4.51174 16.6931C4.26068 17.6412 4.01747 18.5349 3.78994 19.4364C3.78619 19.4957 3.79709 19.5549 3.8217 19.6091C3.84631 19.6633 3.88388 19.7107 3.93116 19.7472C4.16375 19.9002 4.34594 20.1174 4.4552 20.3719C4.56446 20.6264 4.59599 20.9071 4.5459 21.1792C4.49581 21.4512 4.36629 21.7028 4.17336 21.9027C3.98043 22.1026 3.73256 22.2422 3.46042 22.304C3.39989 22.3287 3.34583 22.3667 3.30233 22.4152C3.25883 22.4637 3.22704 22.5213 3.20936 22.5838C3.10737 23.3609 3.0446 24.138 2.95046 24.9152C2.93263 25.0125 2.94948 25.113 2.99813 25.1995C3.04677 25.286 3.12421 25.353 3.21721 25.3892C4.58236 26.1663 5.93966 26.8891 7.28911 27.6507C7.38077 27.7153 7.49046 27.75 7.60294 27.75C7.71543 27.75 7.82511 27.7153 7.91677 27.6507C9.25053 26.9202 10.5921 26.2285 11.9181 25.4902C12.1871 25.3226 12.4985 25.2336 12.8164 25.2336C13.1343 25.2336 13.4457 25.3226 13.7147 25.4902C15.0406 26.2207 16.3901 26.9202 17.716 27.6429C17.8093 27.7034 17.9184 27.7356 18.0298 27.7356C18.1413 27.7356 18.2504 27.7034 18.3437 27.6429C19.6774 26.9124 21.0191 26.2207 22.345 25.4825C22.62 25.3114 22.9382 25.2206 23.2629 25.2206C23.5877 25.2206 23.9058 25.3114 24.1809 25.4825C25.3577 26.143 26.5346 26.7725 27.7506 27.4098L28.1508 27.604V24.4955C27.0602 24.783 26.2129 24.3867 26.0952 23.5163C26.062 23.1478 26.1384 22.7777 26.3149 22.4516C26.4795 22.2007 26.7195 22.0072 27.001 21.8984C27.2825 21.7897 27.5913 21.7711 27.884 21.8455C27.6722 20.843 27.476 19.8871 27.2564 18.9312C27.1967 18.8008 27.0945 18.694 26.9661 18.6282C25.8049 17.9443 24.6124 17.2682 23.4748 16.5765C23.3858 16.5091 23.2769 16.4725 23.1648 16.4725C23.0528 16.4725 22.9439 16.5091 22.8549 16.5765C21.6859 17.2837 20.5012 17.9598 19.3322 18.667C19.0571 18.8531 18.7317 18.9527 18.3986 18.9527C18.0655 18.9527 17.7401 18.8531 17.465 18.667C16.296 17.9598 15.1113 17.2837 13.9344 16.5765C13.8505 16.5147 13.7487 16.4813 13.6441 16.4813C13.5395 16.4813 13.4377 16.5147 13.3538 16.5765C12.2084 17.2682 11.0001 17.921 9.90172 18.6282C9.60321 18.8401 9.24515 18.9541 8.87786 18.9541C8.51058 18.9541 8.15252 18.8401 7.854 18.6282C6.75561 17.9909 5.62583 17.3692 4.47252 16.6931H4.51174ZM3.09952 28.6143C3.52002 31.3961 4.88031 33.9545 6.95823 35.8716C9.03614 37.7888 11.7089 38.9514 14.54 39.1697C17.3712 39.388 20.1934 38.649 22.5458 37.0734C24.8982 35.4979 26.6417 33.1788 27.4917 30.495C26.1737 29.7878 24.8556 29.0806 23.5689 28.3579C23.47 28.293 23.354 28.2585 23.2355 28.2585C23.1169 28.2585 23.0009 28.293 22.902 28.3579C21.5761 29.0806 20.2345 29.78 18.9086 30.5105C18.644 30.6746 18.3381 30.7616 18.0259 30.7616C17.7138 30.7616 17.4079 30.6746 17.1433 30.5105C15.8174 29.78 14.4758 29.0806 13.142 28.3501C13.0439 28.2833 12.9276 28.2475 12.8085 28.2475C12.6895 28.2475 12.5732 28.2833 12.4751 28.3501C11.1649 29.0728 9.83111 29.7567 8.55227 30.4872C8.27073 30.6641 7.9442 30.7581 7.61079 30.7581C7.27737 30.7581 6.95084 30.6641 6.6693 30.4872C5.63368 29.9044 4.58235 29.3604 3.53103 28.7931L3.09952 28.6143ZM5.45323 13.9964C6.57516 14.657 7.64217 15.2943 8.71703 15.9082C8.78483 15.9214 8.85467 15.9207 8.92217 15.906C8.98968 15.8913 9.05338 15.8629 9.10931 15.8227C10.294 15.1388 11.463 14.4549 12.6399 13.7478C12.9181 13.5548 13.2495 13.4513 13.5892 13.4513C13.9288 13.4513 14.2603 13.5548 14.5385 13.7478C15.7075 14.4627 16.8922 15.1311 18.0612 15.8382C18.1458 15.9019 18.2492 15.9364 18.3554 15.9364C18.4617 15.9364 18.565 15.9019 18.6497 15.8382C19.803 15.1466 21.0034 14.4783 22.1331 13.7711C22.4147 13.5683 22.7539 13.459 23.1021 13.459C23.4502 13.459 23.7894 13.5683 24.071 13.7711C24.4633 14.0275 24.8556 14.2607 25.2871 14.4938L25.9304 14.8591C24.9826 12.2168 23.639 9.73066 21.9448 7.48407C21.14 6.41583 20.1679 5.48186 19.0655 4.71747C18.4251 4.22674 17.6874 3.87547 16.9005 3.68665C16.1136 3.49782 15.2954 3.47569 14.4993 3.62172C13.1336 3.95136 11.8836 4.64159 10.8824 5.61895C9.18299 7.23902 7.78591 9.14378 6.75561 11.2454C6.26918 12.1391 5.86905 13.0639 5.42969 13.9964H5.45323Z" fill="#EE5E5E"/>
<path d="M19.1125 23.2754C19.1155 23.5543 19.0342 23.8278 18.8792 24.0606C18.7241 24.2935 18.5023 24.4751 18.2422 24.5821C17.9821 24.6892 17.6957 24.7167 17.4197 24.6613C17.1437 24.6059 16.8907 24.47 16.6933 24.2711C16.4958 24.0721 16.3629 23.8193 16.3117 23.545C16.2604 23.2707 16.2931 22.9875 16.4056 22.7317C16.5181 22.476 16.7051 22.2594 16.9428 22.1098C17.1805 21.9602 17.4579 21.8843 17.7395 21.8921C18.1032 21.9059 18.4479 22.0567 18.7031 22.3138C18.9583 22.571 19.1047 22.9149 19.1125 23.2754Z" fill="#EE5E5E"/>
<path d="M9.39954 23.3065C9.39631 23.5841 9.30977 23.8544 9.15091 24.0832C8.99206 24.3119 8.76808 24.4887 8.50749 24.5909C8.2469 24.6931 7.9615 24.7163 7.6876 24.6573C7.4137 24.5984 7.16371 24.46 6.96944 24.2599C6.77517 24.0598 6.64542 23.8069 6.5967 23.5335C6.54797 23.2601 6.58249 22.9785 6.69584 22.7246C6.8092 22.4707 6.99627 22.256 7.23325 22.1077C7.47022 21.9594 7.74637 21.8844 8.02655 21.8921C8.395 21.908 8.74312 22.0638 8.99874 22.3272C9.25436 22.5905 9.39787 22.9412 9.39954 23.3065Z" fill="#EE5E5E"/>
<path d="M22.5806 22.3273C22.3057 22.3211 22.0385 22.2351 21.8125 22.08C21.5864 21.9248 21.4113 21.7072 21.3089 21.4544C21.2065 21.2015 21.1814 20.9244 21.2366 20.6575C21.2917 20.3906 21.4248 20.1456 21.6193 19.953C21.8138 19.7603 22.0612 19.6285 22.3306 19.5738C22.6001 19.5192 22.8798 19.5441 23.1351 19.6455C23.3904 19.7469 23.61 19.9203 23.7667 20.1443C23.9233 20.3682 24.0102 20.6328 24.0164 20.9052C24.0185 21.0925 23.9828 21.2784 23.9114 21.4518C23.84 21.6253 23.7343 21.7829 23.6006 21.9154C23.4668 22.0479 23.3077 22.1526 23.1326 22.2233C22.9574 22.294 22.7698 22.3294 22.5806 22.3273Z" fill="#EE5E5E"/>
<path d="M14.2481 20.9052C14.2511 21.1796 14.1721 21.4488 14.021 21.6788C13.87 21.9089 13.6536 22.0895 13.3991 22.198C13.1446 22.3066 12.8634 22.3381 12.5908 22.2886C12.3183 22.2392 12.0666 22.111 11.8675 21.9202C11.6683 21.7294 11.5306 21.4845 11.4716 21.2164C11.4127 20.9482 11.4351 20.6688 11.5361 20.4132C11.6371 20.1577 11.8122 19.9374 12.0393 19.7802C12.2664 19.623 12.5353 19.5358 12.8123 19.5297C12.9984 19.5245 13.1835 19.5562 13.357 19.6229C13.5305 19.6896 13.6887 19.79 13.8225 19.9181C13.9562 20.0462 14.0628 20.1996 14.1359 20.3691C14.209 20.5386 14.2471 20.7208 14.2481 20.9052Z" fill="#EE5E5E"/>
</svg>
