<svg width="42" height="53" viewBox="0 0 42 53" fill="none" xmlns="http://www.w3.org/2000/svg">
<path d="M23.0675 39.1012L25.5583 37.6589C26.0078 38.5142 26.5101 39.3414 27.0623 40.1355C27.503 40.6954 28.2885 41.5209 28.7292 41.4165C29.3231 41.2837 29.6872 40.3727 30.4536 39.5187L31.9863 40.1355C29.5438 43.2313 26.0272 45.3178 22.1191 45.9903C22.1191 45.5348 22.1191 45.2217 22.1766 44.9085C22.2341 44.5954 22.2628 44.3676 22.2628 44.3581L24.859 43.8173C24.7474 43.0755 24.5809 42.3429 24.3608 41.6253C23.9757 40.7616 23.544 39.919 23.0675 39.1012Z" fill="#5EBAEE"/>
<path d="M33.5197 37.8487L31.4696 36.1976C31.7761 35.9319 32.1785 35.7611 32.2934 35.4669C32.5362 34.9858 32.6135 34.4394 32.5138 33.9107C32.3988 33.5881 31.7282 33.3129 31.2876 33.275C30.2146 33.1801 29.1321 33.275 28.0879 33.275V30.1436C28.9356 30.2191 29.7884 30.2191 30.6361 30.1436C31.3355 30.0202 32.3892 29.7166 32.5521 29.2611C32.715 28.8057 32.1306 27.8852 31.7857 26.9743L34.2669 24.9341C36.02 29.3465 35.5506 33.5407 33.5197 37.8487Z" fill="#5EBAEE"/>
<path d="M20.6731 11.2699C16.598 11.2568 12.6105 12.4408 9.21471 14.6723C5.81893 16.9037 3.16735 20.0824 1.59521 23.8064C0.023078 27.5304 -0.399016 31.6325 0.382296 35.5941C1.16361 39.5557 3.11324 43.1988 5.9847 46.063C8.85617 48.9272 12.5205 50.8837 16.5145 51.6852C20.5084 52.4867 24.6526 52.0972 28.4231 50.566C32.1936 49.0347 35.4211 46.4305 37.6975 43.0825C39.9739 39.7346 41.197 35.7932 41.2121 31.7567C41.2311 29.0731 40.7138 26.4123 39.6901 23.9275C38.6664 21.4428 37.1565 19.1832 35.2474 17.2789C33.3383 15.3747 31.0677 13.8634 28.5664 12.8321C26.065 11.8008 23.3824 11.2699 20.6731 11.2699V11.2699ZM29.5535 45.6771C23.432 49.4727 14.2259 48.5238 10.6813 44.026L19.1403 46.7494C19.0445 45.4779 18.9966 44.7852 18.9295 43.9691C18.4697 44.1209 18.1536 44.3392 17.8662 44.2917C17.3251 44.2776 16.8022 44.095 16.3717 43.7698C16.1322 43.5136 16.2185 42.8209 16.3717 42.3844C16.8795 41.2553 17.5117 40.1735 18.0769 39.1107L15.567 37.6494C15.116 38.5312 14.6039 39.3809 14.0343 40.1925C13.5197 40.7044 12.94 41.1478 12.3099 41.5115L10.8059 39.4618C10.1038 39.8253 9.36947 40.1239 8.6121 40.3538C8.11395 40.4772 7.13682 40.3538 7.03144 40.0407C6.93645 39.7446 6.9078 39.4317 6.94751 39.1235C6.98722 38.8154 7.09433 38.5196 7.26135 38.2567C8.00782 37.4931 8.8222 36.7976 9.69462 36.1786C9.37553 35.9633 9.08295 35.7117 8.82286 35.429C8.63376 35.2504 8.50467 35.0185 8.45308 34.7648C8.4015 34.5111 8.42992 34.2478 8.53448 34.0106C8.63905 33.7734 8.81471 33.5738 9.03765 33.4388C9.2606 33.3038 9.52005 33.24 9.78084 33.256C10.3553 33.2275 10.9308 33.2275 11.5052 33.256H13.0763V30.1151C12.1868 30.1861 11.293 30.1861 10.4035 30.1151C9.7521 30.0108 8.69832 29.6692 8.63126 29.2801C8.50672 28.6443 9.03361 27.8852 9.37848 26.9363C8.63033 26.4082 7.94571 25.7969 7.33799 25.1144C6.98354 24.6684 7.11765 23.8239 7.04102 23.2166C7.58027 23.0706 8.14117 23.0192 8.69832 23.0648C9.45908 23.3174 10.1963 23.6349 10.9017 24.0137L12.3865 21.9071C13.0066 22.2994 13.5816 22.7576 14.1013 23.2736C14.6624 24.0771 15.1681 24.9172 15.6149 25.7881C16.4101 25.3042 17.1669 24.8392 18.0769 24.3268C17.5518 23.4401 17.0846 22.521 16.6783 21.575C16.4388 20.9298 16.228 19.9334 16.5538 19.5064C16.8795 19.0794 17.8853 19.2312 18.8912 19.0889C18.9198 18.3336 19.042 17.5847 19.2553 16.859C19.4756 16.2896 20.1366 15.9101 20.606 15.4072C21.0467 15.8816 21.6789 16.2896 21.8993 16.8495C22.1195 17.5779 22.2514 18.3296 22.292 19.0889L24.8211 19.5444C24.7262 20.3373 24.566 21.1211 24.3421 21.8882C23.9783 22.6719 23.5656 23.4325 23.1063 24.1655L25.5683 25.6173C25.991 24.7814 26.4778 23.9788 27.0245 23.2166C27.5824 22.6689 28.1955 22.1792 28.8542 21.7553L30.3487 23.8334L33.0502 22.6852L32.734 21.5845L33.031 21.3852C33.933 22.6402 34.7614 23.9455 35.5122 25.2947C37.268 28.8155 37.6302 32.8597 36.5275 36.6317C35.4248 40.4037 32.937 43.6304 29.5535 45.6771V45.6771Z" fill="#5EBAEE"/>
<path d="M25.2037 6.42106C24.8345 5.64775 24.5145 4.85227 24.2457 4.03931C24.1771 3.08629 23.7409 2.19597 23.0274 1.55291C22.314 0.909857 21.3782 0.563379 20.4138 0.5853C19.4887 0.623112 18.6122 1.006 17.9602 1.65716C17.3081 2.30832 16.9287 3.1796 16.8981 4.09625C16.8981 4.69406 16.8214 5.51012 16.4478 5.81377C15.1354 6.88603 15.3557 8.16705 15.4898 9.35318H25.7881C25.6061 8.42325 25.472 7.39844 25.2037 6.42106ZM18.3446 5.42471C18.654 4.44805 19.0989 3.51872 19.6666 2.6634C19.9498 2.5089 20.2678 2.42788 20.5911 2.42788C20.9143 2.42788 21.2324 2.5089 21.5155 2.6634C22.1069 3.51764 22.5805 4.44628 22.9237 5.42471H18.3446Z" fill="#5EBAEE"/>
<path d="M23.6332 31.6334C23.6422 32.0309 23.5703 32.4262 23.4217 32.7957C23.2732 33.1651 23.051 33.5011 22.7685 33.7836C22.4859 34.0661 22.1488 34.2893 21.7773 34.44C21.4058 34.5906 21.0074 34.6656 20.606 34.6604C20.2035 34.6667 19.8038 34.5939 19.4299 34.4462C19.056 34.2986 18.7154 34.079 18.4276 33.8002C18.1399 33.5214 17.9108 33.1888 17.7536 32.8218C17.5964 32.4548 17.5142 32.0605 17.5117 31.6618C17.5354 30.8613 17.8651 30.0994 18.4342 29.5305C19.0033 28.9615 19.7692 28.6278 20.5772 28.5969C21.387 28.6043 22.1614 28.9269 22.7331 29.495C23.3049 30.0632 23.6282 30.8312 23.6332 31.6334V31.6334Z" fill="#5EBAEE"/>
</svg>
