<svg width="43" height="45" viewBox="0 0 43 45" fill="none" xmlns="http://www.w3.org/2000/svg">
<path d="M11.181 0.869263H11.8752C12.1608 0.927252 12.4117 1.08845 12.5752 1.31902C12.7388 1.54959 12.8024 1.83162 12.7526 2.10591V4.5792C12.661 4.9211 12.806 5.03022 13.1645 4.99384C13.4195 4.98605 13.6746 4.99821 13.9274 5.03022L15.026 5.21935L16.239 5.56125C16.441 5.68607 16.6664 5.77252 16.9028 5.81585L17.6199 6.19412L18.81 6.97248L18.9931 7.13252L20.0993 8.20913C20.0993 8.26732 20.0993 8.34007 20.2214 8.36189L20.9843 9.51852L21.5335 10.8134C21.6135 10.73 21.6572 10.6208 21.6556 10.5078L22.121 9.53306C22.5648 8.86191 23.0757 8.23337 23.6468 7.65627C24.5292 6.81763 25.5629 6.13752 26.6984 5.64854L26.9578 5.55397C26.9901 5.55879 27.0233 5.55447 27.0531 5.54154C27.0829 5.52862 27.1081 5.50765 27.1256 5.48123H27.2171C27.2454 5.48513 27.2742 5.481 27.3 5.46935C27.3258 5.45771 27.3474 5.43906 27.3621 5.41576C27.5299 5.45213 27.6673 5.34301 27.8198 5.30664L29.3456 5.00112L30.2993 4.96475C30.6811 4.95857 31.063 4.97071 31.4436 5.00112C31.8174 5.03749 31.9242 4.91383 31.8403 4.58648V2.11318V1.69854L31.9013 1.53123V1.3712C32.084 1.15496 32.3199 0.985051 32.588 0.876537H32.8473C33.6102 1.13114 33.717 1.2839 33.717 2.06954C33.717 3.04431 33.717 4.01908 33.717 4.9793C33.717 5.21208 33.7857 5.30664 34.0146 5.35756C34.5867 5.4885 35.1437 5.64854 35.7082 5.78675C35.8226 5.78675 35.9218 5.91042 36.0515 5.88859L36.906 6.23777L38.2944 7.04522C38.2944 7.11797 38.3936 7.13252 38.4623 7.14707L39.599 8.04909L39.8355 8.2746L40.9264 9.42395V9.48942L41.7885 10.8861C41.8645 11.118 41.9695 11.3402 42.1013 11.5481C42.1221 11.6981 42.1768 11.842 42.2615 11.97L42.6124 13.1994L42.8718 14.6542C42.8718 15.3817 42.8718 15.3817 42.1928 15.3817H0.721663C0.635358 15.3747 0.548582 15.3747 0.462277 15.3817C0.103715 15.4399 -0.0717517 15.338 0.0274252 14.9598C0.0620124 14.7721 0.0849394 14.5826 0.0960862 14.3924L0.29444 13.1557L0.653002 11.9263C0.729292 11.89 0.721663 11.8172 0.721663 11.7518L1.21755 10.6824L1.85075 9.62036L2.19406 9.19844L2.95696 8.31824L3.42232 7.89633L4.51327 7.05977L4.67348 6.96521L5.89412 6.23777L6.93166 5.81585C7.02321 5.81585 7.12239 5.81585 7.19105 5.73583L8.65581 5.42303L9.77727 5.19025L10.7538 5.05931C10.8148 5.05931 10.8377 5.05931 10.8224 4.98657V2.07681C10.8234 1.65053 10.9474 1.23274 11.181 0.869263ZM31.5428 8.76198C31.2057 8.88689 30.9215 9.1145 30.7341 9.4094C30.6145 9.50133 30.5267 9.62557 30.4823 9.76585C30.3264 9.98103 30.2341 10.2323 30.2153 10.4933C30.1029 11.0153 30.1677 11.5579 30.4002 12.0424C30.6328 12.527 31.0211 12.9284 31.5089 13.1885C31.9967 13.4486 32.5586 13.5539 33.1133 13.4892C33.6681 13.4244 34.1868 13.193 34.5944 12.8284C34.8243 12.6817 35.0045 12.4745 35.1131 12.2319C35.2938 11.9835 35.416 11.7009 35.4713 11.4033C35.5266 11.1057 35.5137 10.8002 35.4336 10.5078C35.391 10.1385 35.2503 9.78556 35.0246 9.48258C34.799 9.1796 34.496 8.93657 34.1443 8.77653C34.1274 8.74865 34.1029 8.72574 34.0732 8.71034C34.0436 8.69493 34.0101 8.68763 33.9764 8.68924C33.9764 8.60922 33.8925 8.59467 33.8238 8.68924V10.9443C33.8209 11.1487 33.7464 11.3464 33.6122 11.5058C33.4779 11.6653 33.2916 11.7773 33.0828 11.8241C32.8741 11.871 32.6549 11.8499 32.4602 11.7643C32.2655 11.6787 32.1063 11.5334 32.0081 11.3517L31.8861 10.7843V8.77653C31.7564 8.42736 31.6343 8.76198 31.5428 8.76198ZM12.9967 8.69651C12.9204 8.74016 12.7449 8.39826 12.7526 8.75471V10.7333L12.7068 11.0534V11.1698L12.394 11.6063C12.2085 11.7402 11.9821 11.8127 11.7494 11.8127C11.5166 11.8127 11.2903 11.7402 11.1047 11.6063C10.9162 11.3728 10.8142 11.0862 10.8148 10.7915V8.60922C10.3322 8.76392 9.91097 9.05615 9.60808 9.44642C9.3052 9.8367 9.13525 10.3062 9.12118 10.7915C9.05707 11.2561 9.14057 11.7284 9.36089 12.1472C9.58121 12.5661 9.92822 12.9123 10.3571 13.1412C10.7725 13.413 11.2646 13.5584 11.7684 13.5584C12.2723 13.5584 12.7643 13.413 13.1798 13.1412C13.5991 12.9106 13.9364 12.5658 14.1485 12.1509C14.3606 11.7361 14.4377 11.2703 14.3699 10.8134C14.4004 9.78039 13.7062 9.24209 12.9967 8.69651Z" fill="#CD0303"/>
<path d="M21.5087 44.3646C21.425 44.5618 21.4097 44.3646 21.3564 44.3646C21.2193 43.8697 21.0331 43.3896 20.8006 42.9313C20.465 42.0475 19.9809 41.2269 19.3693 40.5045L18.8211 39.8144C18.6529 39.5874 18.4529 39.3857 18.2272 39.2153L17.6257 38.6086L16.8111 37.9185L16.3162 37.5393C15.5336 36.8832 14.7096 36.2778 13.8493 35.7268C13.6679 35.5498 13.4565 35.406 13.225 35.3021C12.9957 35.0947 12.7397 34.9187 12.4636 34.7788L9.76077 32.8904C9.65418 32.807 9.57804 32.6857 9.42577 32.6629L8.47406 31.988C8.27143 31.7866 8.04063 31.6154 7.78882 31.4799L7.26348 31.0552L6.50211 30.4333C5.02342 29.2224 3.68983 27.8457 2.52775 26.3305L2.109 25.7162L1.71308 25.0413C1.21113 24.1938 0.792957 23.2998 0.464437 22.3718L0.167501 21.1736L0 19.8919C0.0343399 19.7473 0.0343399 19.5967 0 19.4521V19.2776V18.6027C0 18.5268 0 18.4586 0 18.3903C0.0456822 17.6775 0.0456822 17.6775 0.761371 17.632H42.119H42.8119C42.8918 18.373 42.8918 19.1205 42.8119 19.8616V20.127L42.7433 20.4683V20.7261L42.6672 20.9764V21.1584C42.4557 22.0647 42.1705 22.9524 41.8145 23.8127L41.2511 24.8668L40.7562 25.7011C40.6343 25.8132 40.5427 25.954 40.4897 26.1106C39.7785 27.0491 39.016 27.9479 38.2056 28.8028C37.6955 29.2578 37.2006 29.7356 36.6828 30.1679C35.8682 30.8428 35.023 31.4874 34.1931 32.1472L33.4318 32.6705C33.2638 32.7486 33.1116 32.8565 32.9826 32.989C32.0994 33.5275 31.2543 34.119 30.4244 34.7257L29.5716 35.3021L29.2138 35.5599C27.7677 36.479 26.4047 37.5219 25.1405 38.6768C24.9729 38.7906 24.8283 38.9347 24.7141 39.1015C24.4281 39.3201 24.1722 39.5751 23.9527 39.8599C23.8024 39.9661 23.6797 40.1065 23.5949 40.2694C22.8905 41.0525 22.3358 41.9572 21.9579 42.9389C21.7002 43.3734 21.5465 43.8613 21.5087 44.3646ZM24.5085 33.4592C24.5085 33.5047 24.5466 33.5426 24.5999 33.5351C24.816 33.6449 25.0643 33.6745 25.3003 33.6185C25.8008 33.6578 26.3028 33.5636 26.7546 33.3455C26.8695 33.3141 26.9771 33.2604 27.0711 33.1875C27.1652 33.1146 27.2439 33.024 27.3027 32.9208C27.554 32.4354 27.3027 31.9576 27.3027 31.4723C27.2928 31.1038 27.3208 30.7354 27.3865 30.3726C27.6073 30.2058 27.9423 30.2816 28.1479 30.0314C28.4493 29.7252 28.6396 29.3275 28.6884 28.9014C28.8864 28.2189 28.7874 28.143 28.087 28.2719L27.9271 28.3099C27.7367 28.234 27.4626 28.4388 27.356 28.1279V27.9534V27.6122C27.4246 27.1859 27.4551 26.7545 27.4474 26.3229V26.1561L27.5007 25.8982L27.5997 25.0337C27.5616 24.8213 27.4093 24.7834 27.2266 24.7758C26.8409 24.7669 26.4585 24.8488 26.1106 25.0149C25.7626 25.1809 25.4589 25.4264 25.2242 25.7314C25.1217 25.8683 25.0778 26.0401 25.1024 26.2092C25.1631 26.6744 25.1936 27.143 25.1938 27.6122C25.1024 28.1203 25.0186 28.636 24.3182 28.6132H24.2344H24.0669L23.0848 28.5677C22.8792 28.5677 22.7269 28.4691 22.7498 28.2264L22.7954 27.9762L22.9325 27.6197L23.4807 26.5504L24.0669 25.557C24.1431 25.4584 24.242 25.3825 24.2497 25.2384L25.2699 23.7217L25.3689 23.5852C25.6557 23.2371 25.9106 22.864 26.1302 22.4704C26.3067 22.3042 26.4534 22.1093 26.5642 21.894L27.0743 21.2646C27.2723 21.0295 27.4779 20.7944 27.6834 20.5669C27.889 20.3394 27.8129 20.1118 27.5312 20.0967C27.2089 20.0098 26.8741 19.9791 26.5414 20.0057C26.0379 20.0137 25.544 20.1439 25.1024 20.3849C24.7878 20.5149 24.5123 20.7239 24.3029 20.9916C24.1172 21.1722 23.9628 21.3824 23.8461 21.6134C23.6339 21.842 23.4522 22.0969 23.3056 22.3718C22.6521 23.2395 22.0447 24.1406 21.4859 25.0716C21.4054 25.1395 21.3515 25.2335 21.3336 25.337C21.0977 25.6566 20.8913 25.9967 20.7169 26.3533C20.6636 26.3533 20.6408 26.4063 20.6484 26.4594C20.6409 26.4678 20.6367 26.4786 20.6367 26.4898C20.6367 26.501 20.6409 26.5118 20.6484 26.5201L20.5722 26.6339L20.4885 26.8083C20.0756 27.4311 19.7502 28.1073 19.5215 28.818C19.4603 28.9693 19.4069 29.1237 19.3617 29.2806C19.1789 30.039 19.3617 30.312 20.123 30.5243C20.5613 30.6453 21.0169 30.6914 21.4707 30.6608C21.7587 30.6987 22.0505 30.6987 22.3386 30.6608L24.0593 30.6002C24.4933 30.6002 24.7826 30.7442 24.6684 31.2599C24.6401 31.3282 24.6196 31.3994 24.6075 31.4723L24.44 32.807C24.44 32.989 24.3486 33.1786 24.44 33.3606C24.44 33.4213 24.44 33.4441 24.5161 33.4592H24.5085ZM14.565 22.842C14.7148 22.924 14.8815 22.9707 15.0523 22.9785C15.5624 23.0316 15.6766 23.1529 15.7147 23.6534L15.7832 24.3663V25.0413V26.3305V27.6197L15.7223 29.1365V30.1679C15.6449 30.593 15.6168 31.0256 15.6386 31.4571V31.624C15.5871 31.7299 15.5685 31.8487 15.5853 31.9652C15.5495 32.2168 15.5495 32.4721 15.5853 32.7236C15.6309 33.1331 15.9888 33.1331 16.2705 33.2241H16.6969C16.9248 33.3111 17.177 33.3111 17.4049 33.2241H17.5648C18.0506 33.2464 18.5276 33.0898 18.9048 32.7843C19.2398 32.5113 18.981 32.2307 18.9048 31.9576V31.7074L18.6688 30.1906L18.6231 29.3261V29.0758V28.909V26.3305L18.684 24.4422V23.752L18.7297 22.2353C18.7919 21.8925 18.8048 21.5427 18.7678 21.1963C18.7678 20.4379 18.3795 20.2256 17.5724 20.5214C17.1105 20.5589 16.6578 20.6716 16.2324 20.855C16.0455 20.9014 15.8696 20.9838 15.7147 21.0977C15.385 21.1858 15.0869 21.3646 14.8543 21.6134C14.7435 21.7265 14.6568 21.8607 14.5992 22.0079C14.5417 22.1552 14.5145 22.3124 14.5193 22.4704V22.7358L14.565 22.842Z" fill="#CD0303"/>
</svg>
