<svg width="40" height="47" viewBox="0 0 40 47" fill="none" xmlns="http://www.w3.org/2000/svg">
<path d="M20.0037 29.1909C9.07812 29.1909 0.185547 36.5691 0.185547 45.6201V46.5835H39.8143V45.6276C39.8143 36.599 30.9218 29.1909 20.0037 29.1909ZM33.6023 39.5861H28.437V32.865C30.3386 33.6845 32.0815 34.8268 33.5873 36.2405L33.6023 39.5861ZM26.5169 39.5861H20.9675V31.1325C22.8535 31.2132 24.7199 31.5448 26.5169 32.1183V39.5861ZM19.0324 39.5861H13.483V32.1183C15.2803 31.5473 17.1468 31.2183 19.0324 31.14V39.5861ZM11.5479 39.5861H7.90348V34.956C9.03221 34.1209 10.2553 33.4192 11.5479 32.865V39.5861ZM7.90348 41.5054H11.5479V44.6792H7.90348V41.5054ZM13.483 41.5054H19.0324V44.6792H13.483V41.5054ZM20.9675 41.5054H26.5169V44.6792H20.9675V41.5054ZM28.452 41.5054H33.6023V44.6792H28.437L28.452 41.5054ZM35.5375 39.5861V38.4659C35.7935 38.8264 36.0298 39.2004 36.2453 39.5861H35.5375ZM5.96835 36.6438V39.5861H3.75462C4.36166 38.5149 5.10573 37.5259 5.96835 36.6438ZM2.836 41.4979H5.93823V44.6717H2.15833C2.23833 43.5882 2.4663 42.5205 2.836 41.4979ZM35.5073 44.6717V41.4979H37.1036C37.4836 42.5191 37.7217 43.5868 37.8114 44.6717H35.5073Z" fill="#59A16E"/>
<path d="M6.03613 14.8152C6.39003 14.4418 6.74392 14.0684 7.08275 13.6875C7.12133 13.6424 7.15051 13.5901 7.16861 13.5337C7.1867 13.4773 7.19335 13.4179 7.18817 13.3589C7.15052 12.9781 7.09028 12.6122 7.03005 12.2089C6.99717 12.0961 6.99895 11.9762 7.03517 11.8645C7.07138 11.7527 7.14039 11.6542 7.23335 11.5816C7.33056 11.5144 7.44619 11.4784 7.56465 11.4784C7.68311 11.4784 7.79874 11.5144 7.89596 11.5816C8.24985 11.7608 8.64892 11.94 8.9727 12.1043C9.07663 12.1455 9.19253 12.1455 9.29647 12.1043C9.67295 11.94 10.0494 11.7533 10.4184 11.5666C10.5091 11.5043 10.6168 11.4709 10.7271 11.4709C10.8374 11.4709 10.9451 11.5043 11.0358 11.5666C11.1187 11.6304 11.1818 11.7161 11.2178 11.8139C11.2537 11.9117 11.2611 12.0175 11.2391 12.1193C11.1789 12.5151 11.1262 12.9034 11.0659 13.2992C11.0476 13.3716 11.0498 13.4476 11.0724 13.5188C11.095 13.59 11.1371 13.6536 11.1939 13.7025C11.4801 13.9713 11.7436 14.2626 12.0147 14.5314C12.1027 14.604 12.1665 14.7015 12.1974 14.8109C12.2283 14.9202 12.225 15.0363 12.1879 15.1438C12.1534 15.2475 12.0883 15.3385 12.001 15.4051C11.9137 15.4717 11.8083 15.5107 11.6984 15.5172C11.3069 15.5769 10.9078 15.6367 10.5238 15.7263C10.4005 15.7559 10.2929 15.8306 10.2226 15.9354C10.0268 16.2565 9.86119 16.5851 9.69554 16.9137C9.52989 17.2423 9.42447 17.3468 9.12329 17.3394C8.8221 17.3319 8.68657 17.1377 8.56609 16.8987C8.44562 16.6598 8.22726 16.2416 8.03902 15.9279C8.00763 15.8768 7.96608 15.8325 7.91688 15.7979C7.86769 15.7632 7.81189 15.7389 7.75289 15.7263C7.38394 15.6441 6.99993 15.5769 6.63098 15.5246C6.50429 15.5172 6.38202 15.4757 6.27724 15.4047C6.17247 15.3337 6.08913 15.2357 6.03613 15.1214V14.8152ZM9.1007 15.6889C9.22532 15.3894 9.39825 15.1119 9.61271 14.8675C9.9109 14.7281 10.228 14.6325 10.5539 14.5837C10.265 14.4362 10.0444 14.184 9.93782 13.8795C9.83128 13.575 9.84698 13.2415 9.98167 12.9482C9.75293 13.1603 9.45148 13.2783 9.13835 13.2783C8.82521 13.2783 8.52377 13.1603 8.29503 12.9482C8.341 13.2552 8.341 13.5672 8.29503 13.8742C8.13057 14.15 7.92779 14.4014 7.69266 14.621C7.85712 14.5888 8.0266 14.5917 8.18986 14.6295C8.35311 14.6672 8.50641 14.739 8.63957 14.84C8.77273 14.941 8.88271 15.0689 8.96221 15.2153C9.04171 15.3616 9.08892 15.5231 9.1007 15.6889Z" fill="#59A16E"/>
<path d="M20.1543 0.424561L20.2899 0.514176C20.3883 0.577073 20.4635 0.669878 20.5043 0.778712C20.5451 0.887546 20.5493 1.00656 20.5163 1.11795C20.4832 1.22935 20.4147 1.32714 20.321 1.3967C20.2272 1.46626 20.1133 1.50385 19.9962 1.50385C19.8791 1.50385 19.7652 1.46626 19.6715 1.3967C19.5777 1.32714 19.5092 1.22935 19.4762 1.11795C19.4431 1.00656 19.4473 0.887546 19.4881 0.778712C19.5289 0.669878 19.6042 0.577073 19.7026 0.514176L19.8306 0.424561H20.1543Z" fill="#59A16E"/>
<path d="M32.9548 14.0684C32.8945 14.4791 32.8268 14.9048 32.7816 15.3305C32.7918 15.4673 32.8536 15.5953 32.9548 15.6889C33.2183 15.9876 33.512 16.2565 33.7906 16.5403C33.8741 16.6114 33.9354 16.7047 33.9674 16.8092C33.9994 16.9137 34.0007 17.025 33.9713 17.1302C33.9338 17.2383 33.8654 17.3333 33.7745 17.4035C33.6836 17.4738 33.5741 17.5163 33.4593 17.526C33.0677 17.5858 32.7063 17.6455 32.2846 17.7351C32.1613 17.7648 32.0538 17.8394 31.9835 17.9442C31.7802 18.2878 31.607 18.6388 31.4187 18.9972C31.3781 19.1012 31.3068 19.1905 31.2141 19.2535C31.1213 19.3164 31.0116 19.3502 30.8992 19.3502C30.7868 19.3502 30.677 19.3164 30.5843 19.2535C30.4916 19.1905 30.4203 19.1012 30.3796 18.9972C30.1989 18.6462 30.0182 18.2952 29.8149 17.9517C29.7496 17.844 29.6441 17.7662 29.5213 17.7351C29.1373 17.6455 28.7683 17.5858 28.3466 17.526C28.2358 17.5201 28.1291 17.4824 28.0396 17.4174C27.95 17.3524 27.8814 17.263 27.8422 17.1601C27.8031 17.0535 27.798 16.9376 27.8276 16.828C27.8573 16.7185 27.9202 16.6206 28.0078 16.5477C28.2864 16.2714 28.5424 15.9876 28.8285 15.7188C28.8893 15.6661 28.9341 15.5977 28.958 15.5212C28.982 15.4448 28.984 15.3632 28.9641 15.2857C28.9038 14.9048 28.8587 14.5389 28.7984 14.1356C28.7699 14.031 28.7749 13.9202 28.8127 13.8185C28.8504 13.7168 28.9191 13.6293 29.0092 13.568C29.1007 13.5077 29.2081 13.4755 29.318 13.4755C29.4278 13.4755 29.5352 13.5077 29.6267 13.568C29.9881 13.7473 30.3796 13.934 30.726 14.0983C30.837 14.1431 30.9613 14.1431 31.0724 14.0983C31.4564 13.9265 31.8253 13.7249 32.2244 13.5531C32.3072 13.5207 32.3969 13.5093 32.4853 13.52C32.5737 13.5307 32.658 13.5631 32.7305 13.6143C32.8031 13.6654 32.8616 13.7338 32.9008 13.8131C32.9399 13.8924 32.9585 13.9802 32.9548 14.0684ZM32.2621 16.6C31.9883 16.4324 31.7849 16.1722 31.6894 15.8675C31.5939 15.5628 31.6128 15.2341 31.7425 14.9421C31.4977 15.1518 31.185 15.2672 30.8615 15.2672C30.5381 15.2672 30.2254 15.1518 29.9806 14.9421C30.1123 15.2354 30.1306 15.5664 30.032 15.8722C29.9334 16.178 29.7248 16.437 29.446 16.6C29.7699 16.5703 30.0937 16.6585 30.3569 16.8481C30.6202 17.0378 30.8049 17.3159 30.8766 17.6306C30.9451 17.3171 31.1268 17.0392 31.3876 16.8494C31.6483 16.6596 31.9701 16.5709 32.2922 16.6H32.2621Z" fill="#59A16E"/>
<path d="M15.4108 25.3225V27.5106C15.4269 27.6187 15.407 27.729 15.3539 27.8247C15.3009 27.9204 15.2178 27.9963 15.1172 28.0408C14.9441 28.1006 14.7557 28.1006 14.5826 28.0408C14.3567 27.9587 14.319 27.7272 14.319 27.4957C14.319 26.2485 14.319 25.0089 14.319 23.7617C14.3461 22.7281 14.1634 21.6997 13.7819 20.7376C13.4003 19.7754 12.8276 18.8991 12.0978 18.1608C11.7815 17.8247 11.7966 17.414 12.0978 17.2423C12.1571 17.2029 12.2236 17.1756 12.2936 17.1618C12.3635 17.148 12.4356 17.1481 12.5055 17.1619C12.5755 17.1758 12.642 17.2032 12.7012 17.2426C12.7605 17.2821 12.8113 17.3327 12.8507 17.3916C14.012 18.5612 14.8182 20.031 15.1774 21.6334C15.3719 22.7249 15.4426 23.8345 15.3882 24.9416L15.4108 25.3225Z" fill="#59A16E"/>
<path d="M19.9962 6.89929C20.443 6.89929 20.8797 7.03069 21.2512 7.27686C21.6227 7.52303 21.9122 7.87293 22.0832 8.2823C22.2541 8.69167 22.2989 9.14213 22.2117 9.57672C22.1246 10.0113 21.9094 10.4105 21.5935 10.7238C21.2776 11.0371 20.8751 11.2505 20.4369 11.337C19.9987 11.4234 19.5445 11.379 19.1318 11.2095C18.719 11.0399 18.3662 10.7527 18.118 10.3843C17.8698 10.0159 17.7373 9.58275 17.7373 9.13965C17.7373 8.54547 17.9753 7.97562 18.3989 7.55548C18.8226 7.13533 19.3971 6.89929 19.9962 6.89929ZM19.9962 10.327C20.1531 10.328 20.3086 10.2982 20.4538 10.2394C20.599 10.1805 20.7311 10.0938 20.8423 9.9841C20.9536 9.87443 21.0419 9.74403 21.1022 9.60038C21.1624 9.45674 21.1934 9.3027 21.1934 9.14712C21.1697 8.85136 21.0344 8.57534 20.8146 8.37405C20.5948 8.17277 20.3067 8.06099 20.0075 8.06099C19.7084 8.06099 19.4202 8.17277 19.2004 8.37405C18.9806 8.57534 18.8454 8.85136 18.8216 9.14712C18.8234 9.45563 18.9463 9.75131 19.1641 9.97155C19.382 10.1918 19.6777 10.3193 19.9887 10.327H19.9962Z" fill="#59A16E"/>
<path d="M24.5891 26.144C24.5198 24.838 24.7302 23.5324 25.2065 22.313C25.6362 21.2283 26.2815 20.2404 27.104 19.408C27.1503 19.341 27.2106 19.2847 27.2808 19.2429C27.351 19.201 27.4295 19.1746 27.5108 19.1654C27.5922 19.1562 27.6746 19.1644 27.7525 19.1895C27.8304 19.2146 27.902 19.256 27.9623 19.3109C28.019 19.3675 28.0626 19.4355 28.0902 19.5104C28.1178 19.5852 28.1288 19.6651 28.1224 19.7446C28.1159 19.824 28.0922 19.9011 28.0529 19.9707C28.0136 20.0402 27.9596 20.1004 27.8946 20.1473C26.7089 21.3242 25.9581 22.8634 25.7637 24.516C25.6658 25.3822 25.7034 26.256 25.6809 27.1297C25.6809 27.2791 25.6809 27.421 25.6809 27.5628C25.6899 27.6393 25.6826 27.7168 25.6593 27.7902C25.636 27.8636 25.5973 27.9313 25.5457 27.9888C25.4941 28.0463 25.4309 28.0924 25.3601 28.1239C25.2893 28.1554 25.2126 28.1717 25.135 28.1717C25.0574 28.1717 24.9806 28.1554 24.9098 28.1239C24.839 28.0924 24.7758 28.0463 24.7242 27.9888C24.6726 27.9313 24.6339 27.8636 24.6106 27.7902C24.5873 27.7168 24.58 27.6393 24.5891 27.5628C24.5815 27.1148 24.5891 26.6966 24.5891 26.144Z" fill="#59A16E"/>
<path d="M20.5462 24.2546V27.4434C20.5615 27.5399 20.5615 27.6382 20.5462 27.7346C20.5132 27.8529 20.4393 27.9558 20.3374 28.0255C20.2355 28.0951 20.1122 28.127 19.989 28.1155C19.8607 28.1053 19.7402 28.0501 19.6491 27.9598C19.558 27.8694 19.5024 27.7499 19.492 27.6226C19.492 27.4135 19.492 27.2119 19.492 27.0028V20.9165C19.483 20.84 19.4903 20.7626 19.5136 20.6891C19.5369 20.6157 19.5756 20.548 19.6272 20.4905C19.6788 20.433 19.742 20.387 19.8128 20.3554C19.8836 20.3239 19.9604 20.3076 20.038 20.3076C20.1156 20.3076 20.1923 20.3239 20.2631 20.3554C20.3339 20.387 20.3972 20.433 20.4487 20.4905C20.5003 20.548 20.539 20.6157 20.5623 20.6891C20.5856 20.7626 20.5929 20.84 20.5839 20.9165C20.5839 21.7603 20.5839 22.6042 20.5839 23.4556L20.5462 24.2546Z" fill="#59A16E"/>
<path d="M12.9713 0.461938C13.201 0.458977 13.429 0.501164 13.6421 0.586064C13.8553 0.670963 14.0494 0.796894 14.2132 0.956587C14.377 1.11628 14.5073 1.30657 14.5966 1.51647C14.6858 1.72638 14.7323 1.95174 14.7333 2.17955C14.7377 2.52429 14.6388 2.86258 14.4491 3.15149C14.2594 3.4404 13.9875 3.6669 13.6678 3.80226C13.348 3.93761 12.995 3.97571 12.6534 3.91173C12.3118 3.84774 11.9971 3.68456 11.7492 3.44288C11.5013 3.2012 11.3313 2.89192 11.261 2.55429C11.1906 2.21666 11.2229 1.8659 11.3538 1.54652C11.4848 1.22714 11.7084 0.953544 11.9964 0.760443C12.2844 0.567342 12.6237 0.463446 12.9713 0.461938ZM12.9713 1.54478C12.7969 1.54477 12.6295 1.61298 12.5054 1.73461C12.3814 1.85625 12.3107 2.02149 12.3087 2.19449C12.3126 2.36759 12.3836 2.53254 12.507 2.65497C12.6305 2.77739 12.7968 2.84785 12.9713 2.85166C13.1458 2.84969 13.3124 2.77959 13.435 2.65656C13.5576 2.53353 13.6264 2.36749 13.6264 2.19449C13.6274 2.11015 13.6116 2.02644 13.58 1.94814C13.5484 1.86984 13.5015 1.79849 13.4421 1.73816C13.3826 1.67782 13.3118 1.62969 13.2336 1.59651C13.1554 1.56334 13.0714 1.54576 12.9864 1.54478H12.9713Z" fill="#59A16E"/>
<path d="M27.0068 0.461857C27.2368 0.459888 27.465 0.503 27.6782 0.58872C27.8913 0.67444 28.0854 0.801079 28.2491 0.961367C28.4128 1.12165 28.543 1.31243 28.6321 1.52275C28.7213 1.73307 28.7677 1.95879 28.7687 2.18694C28.7844 2.42453 28.7508 2.66279 28.6699 2.88698C28.5891 3.11116 28.4627 3.3165 28.2986 3.49029C28.1345 3.66408 27.9362 3.80261 27.7159 3.89732C27.4956 3.99203 27.2581 4.04089 27.0181 4.04089C26.778 4.04089 26.5405 3.99203 26.3202 3.89732C26.1 3.80261 25.9017 3.66408 25.7376 3.49029C25.5734 3.3165 25.4471 3.11116 25.3662 2.88698C25.2853 2.66279 25.2517 2.42453 25.2674 2.18694C25.2694 1.73003 25.4533 1.29238 25.7791 0.969293C26.1048 0.646202 26.5461 0.463822 27.0068 0.461857ZM26.3592 2.17947C26.3572 2.26578 26.3724 2.35163 26.4039 2.43213C26.4353 2.51262 26.4825 2.58617 26.5426 2.64859C26.6027 2.71101 26.6747 2.76106 26.7543 2.79589C26.834 2.83072 26.9197 2.84965 27.0068 2.85158C27.1758 2.85415 27.3396 2.79323 27.4653 2.68104C27.591 2.56886 27.6693 2.4137 27.6844 2.24668C27.6865 2.07366 27.6196 1.90682 27.4984 1.78239C27.3771 1.65795 27.2113 1.58596 27.0369 1.58204C26.8676 1.57383 26.7017 1.63179 26.575 1.7435C26.4483 1.8552 26.3709 2.01173 26.3592 2.17947Z" fill="#59A16E"/>
<path d="M26.0125 14.4941C26.0285 14.6109 26.0064 14.7296 25.9495 14.8331C25.8926 14.9365 25.8039 15.0192 25.6963 15.0691C25.5976 15.1171 25.4862 15.1328 25.3779 15.1141C25.2697 15.0953 25.1702 15.0429 25.0939 14.9646L24.3409 14.2178L22.594 12.4778C22.5279 12.4215 22.4763 12.3505 22.4433 12.2706C22.4103 12.1907 22.397 12.1041 22.4043 12.0181C22.4117 11.932 22.4395 11.8489 22.4856 11.7756C22.5317 11.7024 22.5946 11.641 22.6693 11.5966C22.7716 11.5342 22.8923 11.5084 23.0114 11.5233C23.1306 11.5382 23.241 11.5931 23.3244 11.6787C24.1828 12.5251 25.0362 13.3739 25.8845 14.2253C25.9385 14.3091 25.9815 14.3995 26.0125 14.4941Z" fill="#59A16E"/>
<path d="M17.6241 12.1193C17.5797 12.2367 17.5188 12.3473 17.4433 12.4479C16.6904 13.1947 15.9826 13.9041 15.2522 14.6285C15.2095 14.7001 15.1509 14.761 15.0809 14.8066C15.0108 14.8522 14.9311 14.8814 14.848 14.8918C14.7648 14.9022 14.6804 14.8936 14.6011 14.8667C14.5218 14.8397 14.4498 14.7952 14.3905 14.7364C14.3312 14.6776 14.2863 14.6062 14.2591 14.5275C14.232 14.4489 14.2233 14.3651 14.2338 14.2826C14.2443 14.2002 14.2737 14.1212 14.3197 14.0517C14.3657 13.9822 14.4271 13.9241 14.4992 13.8817C15.2522 13.1349 15.9525 12.4479 16.6753 11.7235C16.7495 11.6376 16.8495 11.5775 16.9606 11.552C17.0716 11.5265 17.188 11.5369 17.2928 11.5816C17.3966 11.6271 17.484 11.7029 17.5432 11.799C17.6025 11.8951 17.6307 12.0069 17.6241 12.1193Z" fill="#59A16E"/>
<path d="M19.454 14.3895V13.3067C19.4478 13.2304 19.4575 13.1537 19.4827 13.0814C19.5079 13.0091 19.548 12.9428 19.6003 12.8866C19.6527 12.8304 19.7163 12.7857 19.787 12.7551C19.8577 12.7246 19.9341 12.709 20.0112 12.7092C20.0861 12.711 20.1598 12.728 20.2278 12.759C20.2959 12.7901 20.3568 12.8346 20.4068 12.8898C20.4569 12.9451 20.495 13.0099 20.5189 13.0803C20.5428 13.1507 20.552 13.2252 20.5458 13.2992V15.5396C20.5532 15.6161 20.5443 15.6932 20.5195 15.7661C20.4948 15.8389 20.4548 15.9057 20.4022 15.9621C20.3496 16.0185 20.2855 16.0633 20.2143 16.0934C20.143 16.1235 20.0661 16.1384 19.9886 16.137C19.9137 16.1352 19.84 16.1183 19.772 16.0872C19.704 16.0562 19.6431 16.0116 19.593 15.9564C19.5429 15.9012 19.5048 15.8363 19.4809 15.7659C19.457 15.6956 19.4478 15.6211 19.454 15.547V14.3895Z" fill="#59A16E"/>
<path d="M17.6696 6.31677C17.5697 6.47029 17.448 6.60864 17.3081 6.7275C17.2243 6.78634 17.122 6.81342 17.0198 6.80383C16.9175 6.79424 16.8221 6.74861 16.7509 6.67523C16.1937 6.13754 15.6366 5.59238 15.1019 5.03229C15.0588 4.98258 15.026 4.92481 15.0056 4.86238C14.9852 4.79995 14.9776 4.73412 14.9832 4.66873C14.9888 4.60335 15.0076 4.53973 15.0383 4.48162C15.069 4.4235 15.1111 4.37206 15.1622 4.3303C15.2113 4.28063 15.2698 4.24116 15.3345 4.21422C15.3991 4.18728 15.4685 4.1734 15.5387 4.1734C15.6088 4.1734 15.6782 4.18728 15.7428 4.21422C15.8075 4.24116 15.8661 4.28063 15.9151 4.3303C16.4573 4.85306 16.9919 5.39075 17.5265 5.9359C17.5906 6.0562 17.6386 6.18422 17.6696 6.31677Z" fill="#59A16E"/>
<path d="M22.8947 6.86194C22.731 6.76 22.5816 6.63695 22.4505 6.496C22.3895 6.40937 22.3614 6.30416 22.371 6.19894C22.3806 6.09372 22.4275 5.99527 22.5032 5.92097C23.0378 5.3758 23.5799 4.83063 24.1371 4.3004C24.19 4.25137 24.2521 4.21314 24.3199 4.18792C24.3877 4.16269 24.4598 4.15096 24.5322 4.15339C24.6046 4.15582 24.6757 4.17236 24.7417 4.20207C24.8076 4.23177 24.867 4.27407 24.9164 4.32654C24.9658 4.37901 25.0044 4.44062 25.0298 4.50786C25.0552 4.5751 25.0671 4.64665 25.0646 4.71842C25.0622 4.7902 25.0455 4.86079 25.0156 4.92617C24.9856 4.99156 24.943 5.05045 24.8901 5.09948C24.5286 5.47288 24.1371 5.84629 23.7757 6.20475C23.6496 6.34594 23.5138 6.47819 23.3691 6.60056C23.2192 6.70166 23.0605 6.78915 22.8947 6.86194Z" fill="#59A16E"/>
<path d="M20.5458 4.08385C20.5458 4.39004 20.5458 4.69622 20.5458 5.00241C20.5549 5.07885 20.5475 5.15633 20.5242 5.22975C20.5009 5.30316 20.4622 5.37086 20.4106 5.42837C20.3591 5.48589 20.2958 5.53192 20.225 5.56345C20.1542 5.59497 20.0775 5.61127 19.9999 5.61127C19.9223 5.61127 19.8455 5.59497 19.7747 5.56345C19.7039 5.53192 19.6407 5.48589 19.5891 5.42837C19.5375 5.37086 19.4988 5.30316 19.4755 5.22975C19.4522 5.15633 19.4449 5.07885 19.454 5.00241V3.17276C19.4449 3.09632 19.4522 3.01884 19.4755 2.94542C19.4988 2.87201 19.5375 2.80431 19.5891 2.7468C19.6407 2.68928 19.7039 2.64325 19.7747 2.61172C19.8455 2.5802 19.9223 2.5639 19.9999 2.5639C20.0775 2.5639 20.1542 2.5802 20.225 2.61172C20.2958 2.64325 20.3591 2.68928 20.4106 2.7468C20.4622 2.80431 20.5009 2.87201 20.5242 2.94542C20.5475 3.01884 20.5549 3.09632 20.5458 3.17276C20.5533 3.47148 20.5458 3.77767 20.5458 4.08385Z" fill="#59A16E"/>
<path d="M14.8833 9.71465H13.9722C13.8999 9.72187 13.8269 9.71421 13.7578 9.69213C13.6887 9.67005 13.6249 9.63405 13.5704 9.58636C13.516 9.53868 13.4721 9.48035 13.4414 9.41504C13.4108 9.34973 13.3941 9.27884 13.3924 9.20683C13.3848 9.13461 13.3929 9.06161 13.4162 8.99277C13.4395 8.92392 13.4774 8.86083 13.5274 8.80775C13.5773 8.75467 13.6382 8.71282 13.7058 8.68505C13.7734 8.65727 13.8463 8.6442 13.9195 8.64673C14.5745 8.64673 15.2296 8.64673 15.8772 8.64673C15.9503 8.6442 16.0232 8.65727 16.0908 8.68505C16.1585 8.71282 16.2193 8.75467 16.2693 8.80775C16.3192 8.86083 16.3571 8.92392 16.3804 8.99277C16.4037 9.06161 16.4118 9.13461 16.4042 9.20683C16.4023 9.2768 16.3863 9.34568 16.357 9.40938C16.3278 9.47309 16.2859 9.53032 16.234 9.57768C16.182 9.62504 16.121 9.66157 16.0545 9.6851C15.9881 9.70863 15.9175 9.71868 15.847 9.71465H14.8833Z" fill="#59A16E"/>
<path d="M24.9661 9.71465H24.1454C24.0747 9.71872 24.0039 9.70841 23.9373 9.68434C23.8708 9.66028 23.8099 9.62297 23.7584 9.57471C23.7069 9.52644 23.6659 9.46825 23.638 9.40371C23.61 9.33916 23.5956 9.26962 23.5957 9.19936C23.5895 9.129 23.598 9.05812 23.6209 8.99124C23.6439 8.92436 23.6806 8.86295 23.7288 8.81095C23.7769 8.75894 23.8355 8.71747 23.9008 8.68919C23.9661 8.66092 24.0365 8.64646 24.1078 8.64673C24.665 8.64673 25.2297 8.64673 25.7944 8.64673C25.8656 8.64763 25.9359 8.66281 26.001 8.69138C26.0661 8.71995 26.1247 8.7613 26.1732 8.81295C26.2218 8.86459 26.2593 8.92545 26.2835 8.99187C26.3077 9.05828 26.318 9.12886 26.314 9.19936C26.3081 9.34067 26.2463 9.47399 26.142 9.57044C26.0377 9.66689 25.8993 9.7187 25.7568 9.71465H24.9661Z" fill="#59A16E"/>
<path d="M20.0038 17.9293C20.1463 17.9293 20.283 17.9849 20.3845 18.0842C20.4859 18.1834 20.5439 18.3182 20.5459 18.4595C20.5441 18.601 20.4876 18.7364 20.3882 18.8378C20.2887 18.9393 20.1538 18.999 20.0113 19.0047C19.8635 19.0047 19.7218 18.9465 19.6173 18.8428C19.5128 18.7392 19.4541 18.5986 19.4541 18.4521C19.458 18.3108 19.5179 18.1767 19.6208 18.0789C19.7237 17.981 19.8613 17.9273 20.0038 17.9293Z" fill="#59A16E"/>
<path d="M28.7907 9.13963C28.7937 9.20951 28.7825 9.27929 28.7579 9.34482C28.7332 9.41036 28.6956 9.47032 28.6471 9.52115C28.5987 9.57199 28.5404 9.61266 28.4758 9.64076C28.4112 9.66887 28.3416 9.68383 28.2711 9.68477C28.1984 9.68782 28.1258 9.67612 28.0578 9.65038C27.9898 9.62463 27.9278 9.58539 27.8757 9.53505C27.8235 9.48471 27.7822 9.42434 27.7544 9.35763C27.7266 9.29092 27.7128 9.21928 27.7139 9.1471C27.7158 9.00636 27.7725 8.87181 27.8722 8.7716C27.9718 8.67138 28.1067 8.61327 28.2485 8.60943C28.3194 8.60844 28.3897 8.62142 28.4554 8.64762C28.5211 8.67382 28.581 8.71272 28.6314 8.76206C28.6819 8.81139 28.7219 8.87017 28.7492 8.93499C28.7766 8.99981 28.7907 9.06937 28.7907 9.13963Z" fill="#59A16E"/>
<path d="M11.7438 9.71468C11.673 9.71675 11.6026 9.70445 11.5368 9.67853C11.471 9.65262 11.4112 9.61364 11.3612 9.56399C11.3111 9.51434 11.2718 9.45506 11.2457 9.3898C11.2195 9.32454 11.2071 9.25467 11.2092 9.18448C11.2072 9.04315 11.2613 8.9067 11.36 8.80467C11.4586 8.70265 11.5938 8.64326 11.7363 8.63934C11.8834 8.64128 12.024 8.70012 12.1281 8.80334C12.2322 8.90655 12.2915 9.04599 12.2935 9.19195C12.2876 9.33261 12.2271 9.46558 12.1247 9.56302C12.0222 9.66045 11.8858 9.7148 11.7438 9.71468Z" fill="#59A16E"/>
</svg>
