<svg width="55" height="52" viewBox="0 0 55 52" fill="none" xmlns="http://www.w3.org/2000/svg">
<path d="M35.1815 47.9512C29.5315 52.9038 25.0315 52.9039 19.6415 48.2979C17.8315 49.3677 16.2215 50.6851 14.3715 51.2695C11.1115 52.3591 8.29153 51.0516 5.98153 48.7436C3.31795 45.9364 1.54467 42.4165 0.881539 38.6205C-0.73846 31.2609 -0.288461 24.0003 3.60154 17.2945C4.62057 15.6227 5.94278 14.1518 7.50153 12.956C8.85033 11.8761 10.5322 11.287 12.2665 11.287C14.0009 11.287 15.6827 11.8761 17.0315 12.956C17.8415 13.5404 18.5715 14.2536 19.1615 14.7587C20.7715 13.7682 22.3415 12.8866 23.8515 11.8961C24.0179 11.7609 24.155 11.5938 24.2546 11.4049C24.3543 11.216 24.4145 11.0091 24.4315 10.7966C24.4915 9.26132 24.4315 7.73591 24.4315 6.2006C24.5115 2.73376 26.6915 0.614036 30.2015 0.58432H35.2015V5.85391H29.8815C29.8815 7.74582 29.8815 9.45942 29.8815 11.1631C29.8815 11.4306 30.2415 11.7773 30.5115 11.9456C32.0015 12.9362 33.5115 13.788 35.3715 14.9172C35.538 14.5915 35.7464 14.2885 35.9915 14.0158C39.9215 10.3311 44.8415 10.4698 48.5415 14.3922C51.5415 17.6114 53.0515 21.5735 53.7815 25.8328C54.9786 31.7708 54.3156 37.9294 51.8815 43.484C50.9209 45.5609 49.6048 47.4577 47.9915 49.0903C44.4815 52.577 39.9015 52.4779 36.2115 49.1597C35.8468 48.7752 35.5029 48.3719 35.1815 47.9512ZM24.7015 38.3431C25.2809 39.2091 26.0756 39.9127 27.0091 40.3863C27.9426 40.86 28.9835 41.0876 30.0315 41.0473C32.5315 41.1067 33.8915 39.819 35.5515 38.0064L38.0215 41.0671L42.1715 32.8358C39.6415 33.2617 37.3815 33.7768 35.1015 33.9749C34.191 33.9887 33.3039 34.2635 32.5479 34.7663C31.7918 35.2691 31.1991 35.9782 30.8415 36.8078C30.5491 37.307 30.2145 37.7809 29.8415 38.2243C28.3515 36.4611 26.9115 35.3815 24.4315 35.3418C21.9515 35.3022 20.5215 36.6592 18.9515 38.3134C16.9515 35.5399 14.1015 34.3513 10.9515 32.9943C12.7015 35.5994 14.2615 37.9469 15.8815 40.2747C16.0178 40.4527 16.1891 40.6015 16.385 40.7121C16.5809 40.8228 16.7975 40.893 17.0215 40.9185C19.7015 41.0374 22.5015 41.4237 24.1915 38.5511C24.1815 38.4719 24.3515 38.462 24.6515 38.3431H24.7015ZM22.4215 28.1209L19.0115 22.0391L15.6115 28.1209H22.4215ZM38.7015 28.1209L35.3115 22.0688L31.9415 28.0912L38.7015 28.1209Z" fill="#E8672F"/>
</svg>
