<svg width="34" height="35" viewBox="0 0 34 35" fill="none" xmlns="http://www.w3.org/2000/svg">
<path d="M16.9195 34.4805H7.0319C5.89153 34.4899 4.76685 34.217 3.75997 33.6867C2.75309 33.1563 1.89591 32.3852 1.26625 31.4434C0.411453 30.2672 -0.0324858 28.8469 0.0018521 27.3981C0.0018521 20.8313 0.0018521 14.2644 0.0018521 7.69762C0.0456015 6.31699 0.491388 4.97832 1.28552 3.84286C2.07965 2.70739 3.18825 1.82355 4.47782 1.29779C5.3268 0.964778 6.23258 0.796819 7.14569 0.803087C13.788 0.803087 20.4345 0.803087 27.0852 0.803087C28.5859 0.856332 30.0324 1.37258 31.2225 2.27972C32.4126 3.18686 33.2869 4.43956 33.7233 5.86284C33.8946 6.52739 33.9712 7.21242 33.9509 7.89801C33.9509 14.3667 33.9003 20.8354 33.9509 27.3104C33.9449 29.0291 33.3234 30.6899 32.197 31.9972C31.0705 33.3045 29.5123 34.1734 27.7996 34.4492C27.6208 34.4648 27.441 34.4648 27.2622 34.4492L16.9195 34.4805Z" fill="#011627"/>
<path d="M17.0079 23.6846C22.0654 23.6846 27.0851 23.6846 32.1237 23.6846C32.5852 23.6846 32.699 23.8099 32.68 24.2482C32.717 25.6226 32.6811 26.998 32.5726 28.3687C32.3449 29.6974 31.659 30.9068 30.6318 31.7906C29.6046 32.6745 28.2998 33.1781 26.9397 33.2156C20.2805 33.2156 13.6214 33.2156 6.96224 33.2156C5.46544 33.1608 4.04547 32.5452 2.98929 31.4932C1.93311 30.4412 1.3195 29.0313 1.27246 27.5484C1.27246 26.4274 1.27246 25.3065 1.27246 24.1919C1.27246 23.7911 1.37361 23.6846 1.78454 23.6846C6.84634 23.693 11.9208 23.693 17.0079 23.6846Z" fill="#FE0D36"/>
<path d="M1.25351 7.16535C1.41852 6.13807 1.83049 5.16515 2.45469 4.32864C3.1794 3.405 4.17217 2.72321 5.29958 2.37487C5.65361 2.26216 6.01396 2.18701 6.37432 2.09308C6.53869 1.96158 6.74099 2.09308 6.91801 1.99915C7.06314 1.9867 7.20909 1.9867 7.35422 1.99915H26.5478C26.695 1.98653 26.8431 1.98653 26.9903 1.99915C27.161 2.08056 27.3696 1.96158 27.534 2.09308C28.5212 2.26788 29.4577 2.65476 30.2777 3.22651C31.4862 4.11318 32.3071 5.42359 32.5726 6.88982C32.5726 6.98375 32.6295 7.07768 32.6548 7.16535C32.7875 7.32191 32.6548 7.52229 32.7496 7.69137C32.7939 8.84359 32.7496 9.99581 32.7496 11.148C32.7561 11.2437 32.7294 11.3388 32.6738 11.4173V11.5926C32.5347 11.7492 32.345 11.7053 32.168 11.7053C22.0528 11.7053 11.9187 11.7053 1.76559 11.7053C1.58858 11.7053 1.39892 11.7492 1.25984 11.5926V11.4173C1.20328 11.3368 1.17648 11.2395 1.18397 11.1418C1.18397 9.99581 1.15236 8.84359 1.18397 7.69137C1.24087 7.52855 1.12075 7.32191 1.25351 7.16535Z" fill="#FEFEFE"/>
<path d="M32.6552 13.0705V22.2256H1.25391V13.0705C1.42548 12.971 1.62801 12.9376 1.82288 12.9766H32.0862C32.281 12.9376 32.4836 12.971 32.6552 13.0705Z" fill="#086DFE"/>
</svg>
