<svg width="32" height="32" viewBox="0 0 56 56" fill="currentColor" xmlns="http://www.w3.org/2000/svg">
<path fill-rule="evenodd" clip-rule="evenodd" d="M52 28C52 41.2548 41.2548 52 28 52C14.7452 52 4 41.2548 4 28C4 14.7452 14.7452 4 28 4C41.2548 4 52 14.7452 52 28ZM56 28C56 43.464 43.464 56 28 56C12.536 56 -1.89987e-06 43.464 -1.22392e-06 28C-5.47967e-07 12.536 12.536 -1.89987e-06 28 -1.22392e-06C43.464 -5.47967e-07 56 12.536 56 28ZM27 38.9552L27 34.5C27 33.6716 27.6716 33 28.5 33C29.3284 33 30 33.6716 30 34.5L30 38.8186C34.6371 37.9669 38.2568 34.2072 38.8986 29.5L35 29.5C34.1716 29.5 33.5 28.8284 33.5 28C33.5 27.1716 34.1716 26.5 35 26.5L38.8986 26.5C38.2568 21.7928 34.6371 18.0331 30 17.1814L30 22.5C30 23.3284 29.3284 24 28.5 24C27.6716 24 27 23.3284 27 22.5L27 17.0448C21.8906 17.5053 17.7887 21.4594 17.1014 26.5L23 26.5C23.8284 26.5 24.5 27.1716 24.5 28C24.5 28.8284 23.8284 29.5 23 29.5L17.1014 29.5C17.7887 34.5406 21.8906 38.4947 27 38.9552ZM14.0794 29.5C14.793 36.1997 20.2325 41.4872 27 41.9648L27 46.5C27 47.3284 27.6716 48 28.5 48C29.3284 48 30 47.3284 30 46.5L30 41.8582C36.2971 40.9575 41.2425 35.8663 41.9206 29.5L47 29.5C47.8284 29.5 48.5 28.8284 48.5 28C48.5 27.1716 47.8284 26.5 47 26.5L41.9206 26.5C41.2425 20.1337 36.2971 15.0425 30 14.1418L30 10.5C30 9.67157 29.3284 9 28.5 9C27.6716 9 27 9.67157 27 10.5L27 14.0352C20.2325 14.5128 14.793 19.8003 14.0794 26.5L11 26.5C10.1716 26.5 9.5 27.1716 9.5 28C9.5 28.8284 10.1716 29.5 11 29.5L14.0794 29.5Z" fill="currentColor"/>
</svg>
