<svg width="32" height="32" viewBox="0 0 56 56" fill="none" xmlns="http://www.w3.org/2000/svg">
<path fill-rule="evenodd" clip-rule="evenodd" d="M28 52C41.2548 52 52 41.2548 52 28C52 14.7452 41.2548 4 28 4C14.7452 4 4 14.7452 4 28C4 41.2548 14.7452 52 28 52ZM28 56C43.464 56 56 43.464 56 28C56 12.536 43.464 0 28 0C12.536 0 0 12.536 0 28C0 43.464 12.536 56 28 56Z" fill="currentColor"/>
<path d="M41.6782 41.1059C41.6395 41.0732 41.6058 41.0217 41.5623 41.0124C39.3951 40.652 37.2183 40.287 35.0607 39.9407C34.7202 39.8861 34.4088 39.7212 34.1774 39.4728C28.3854 33.8292 22.5724 28.1887 16.7385 22.5514C16.4504 22.285 16.2019 21.981 16 21.6483V21.1148C16.2334 20.7411 16.5175 20.3996 16.8447 20.0993C17.9902 19.0043 19.1245 17.9124 20.2475 16.8236C20.5581 16.506 20.9102 16.2291 21.2949 16H21.8741C22.1364 16.1439 22.3795 16.3183 22.5981 16.5194L40.3749 33.7356C40.5409 33.8852 40.6497 34.0847 40.6839 34.3018C40.8914 35.5279 41.099 36.7539 41.3499 37.9706C41.4517 38.8822 41.6392 39.7828 41.9098 40.6614C41.8133 40.8018 42.1367 41.1434 41.6782 41.1059ZM23.9689 19.9074C24.162 19.7203 24.1089 19.636 23.9689 19.4816C23.1773 18.7282 22.4002 17.9607 21.5893 17.1746L17.4722 21.1756C17.337 21.3066 17.2646 21.3909 17.448 21.564C18.2541 22.3362 19.0408 23.1176 19.8614 23.9038C21.2322 22.5608 22.5933 21.2271 23.9689 19.9074ZM35.7992 38.7989L39.8971 39.4307C40.346 39.5055 40.1867 39.206 40.1481 39.0282C39.8874 37.7975 39.6123 36.5621 39.3517 35.3547L35.7992 38.7989Z" fill="currentColor"/>
</svg>
