<svg width="32" height="32" viewBox="0 0 32 32" fill="none" xmlns="http://www.w3.org/2000/svg">
<path fill-rule="evenodd" clip-rule="evenodd" d="M30.5911 0.36173C31.3102 0.928099 31.4236 1.95719 30.8443 2.66027L16.1145 20.5357L0.405085 2.70145C-0.197536 2.01732 -0.118742 0.985149 0.581076 0.396035C1.28089 -0.19308 2.33673 -0.116052 2.93935 0.568081L16.0288 15.428L28.2398 0.609265C28.8192 -0.0938139 29.8719 -0.204639 30.5911 0.36173Z" fill="#004A22"/>
<path fill-rule="evenodd" clip-rule="evenodd" d="M30.5911 0.36173C31.3102 0.928099 31.4236 1.95719 30.8443 2.66027L16.1145 20.5357L0.405085 2.70145C-0.197536 2.01732 -0.118742 0.985149 0.581076 0.396035C1.28089 -0.19308 2.33673 -0.116052 2.93935 0.568081L16.0288 15.428L28.2398 0.609265C28.8192 -0.0938139 29.8719 -0.204639 30.5911 0.36173Z" fill="#004A22"/>
<path fill-rule="evenodd" clip-rule="evenodd" d="M30.5911 0.36173C31.3102 0.928099 31.4236 1.95719 30.8443 2.66027L16.1145 20.5357L0.405085 2.70145C-0.197536 2.01732 -0.118742 0.985149 0.581076 0.396035C1.28089 -0.19308 2.33673 -0.116052 2.93935 0.568081L16.0288 15.428L28.2398 0.609265C28.8192 -0.0938139 29.8719 -0.204639 30.5911 0.36173Z" stroke="#004A22"/>
<path fill-rule="evenodd" clip-rule="evenodd" d="M30.5911 11.3617C31.3102 11.9281 31.4236 12.9572 30.8443 13.6603L16.1145 31.5357L0.405085 13.7015C-0.197536 13.0173 -0.118742 11.9851 0.581076 11.396C1.28089 10.8069 2.33673 10.8839 2.93935 11.5681L16.0288 26.428L28.2398 11.6093C28.8192 10.9062 29.8719 10.7954 30.5911 11.3617Z" fill="#004A22"/>
<path fill-rule="evenodd" clip-rule="evenodd" d="M30.5911 11.3617C31.3102 11.9281 31.4236 12.9572 30.8443 13.6603L16.1145 31.5357L0.405085 13.7015C-0.197536 13.0173 -0.118742 11.9851 0.581076 11.396C1.28089 10.8069 2.33673 10.8839 2.93935 11.5681L16.0288 26.428L28.2398 11.6093C28.8192 10.9062 29.8719 10.7954 30.5911 11.3617Z" fill="#004A22"/>
<path fill-rule="evenodd" clip-rule="evenodd" d="M30.5911 11.3617C31.3102 11.9281 31.4236 12.9572 30.8443 13.6603L16.1145 31.5357L0.405085 13.7015C-0.197536 13.0173 -0.118742 11.9851 0.581076 11.396C1.28089 10.8069 2.33673 10.8839 2.93935 11.5681L16.0288 26.428L28.2398 11.6093C28.8192 10.9062 29.8719 10.7954 30.5911 11.3617Z" stroke="#004A22"/>
</svg>
