<svg width="46" height="46" viewBox="0 0 46 46" fill="none" xmlns="http://www.w3.org/2000/svg">
<path fill-rule="evenodd" clip-rule="evenodd" d="M23 41C32.9411 41 41 32.9411 41 23C41 13.0589 32.9411 5 23 5C13.0589 5 5 13.0589 5 23C5 32.9411 13.0589 41 23 41ZM23 46C35.7025 46 46 35.7025 46 23C46 10.2975 35.7025 0 23 0C10.2975 0 0 10.2975 0 23C0 35.7025 10.2975 46 23 46Z" fill="#004A22" fill-opacity="0.75"/>
<path fill-rule="evenodd" clip-rule="evenodd" d="M15.8284 13L13 15.8284L20.4247 23.2531L13.0001 30.6776L15.8285 33.5061L23.2531 26.0814L30.6777 33.506L33.5061 30.6776L26.0815 23.2531L33.5062 15.8284L30.6777 13L23.2531 20.4247L15.8284 13Z" fill="#004A22" fill-opacity="0.75"/>
</svg>
