<svg width="28" height="28" viewBox="0 0 28 28" fill="none" xmlns="http://www.w3.org/2000/svg">
<path d="M18.0741 12.6573C15.5748 12.0802 15.1123 11.3974 15.5837 9.11127C16.1441 6.39342 17.8384 4.56096 20.311 3.38483C21.3738 2.88267 22.4856 2.85624 23.424 3.64473C24.4512 4.49048 24.6291 5.60933 24.3134 6.83391C23.7619 8.83816 22.5034 10.3138 20.4533 11.6265C22.7213 11.5208 24.6514 11.5869 26.3502 12.6705C27.333 13.296 28.089 14.0933 27.9911 15.3134C27.8933 16.5336 27.0528 17.256 26.0166 17.767C23.4062 19.0753 19.1859 17.9961 17.3181 15.7627C16.1619 14.384 17.0513 13.5471 18.0741 12.6573Z" fill="#3EAB2C"/>
<path d="M6.05851 15.8332C4.48424 15.6746 2.94554 15.3927 1.6114 14.5117C0.575228 13.8245 -0.167439 12.8951 0.0326809 11.5736C0.206118 10.3491 1.09999 9.69714 2.18953 9.27867C4.88003 8.24351 8.65118 9.34034 10.43 11.6133C11.4617 12.9348 11.4795 13.9479 9.85634 14.7936C8.6684 15.3755 7.37955 15.7283 6.05851 15.8332Z" fill="#3EAB2C"/>
<path d="M14.788 7.3537C14.7258 8.54303 14.8814 10.6134 13.1604 11.1376C11.2837 11.7058 9.95849 10.0055 8.94455 8.56506C7.90499 7.11608 7.431 5.34293 7.61043 3.57425C7.73494 2.30562 8.17965 1.09866 9.58938 0.671381C10.8835 0.274935 11.8885 0.918058 12.7513 1.77702C14.201 3.19101 14.8281 4.93978 14.788 7.3537Z" fill="#3EAB2C"/>
<path d="M12.6051 18.3485C12.5161 21.3482 10.5105 24.2555 7.97564 25.1409C5.75209 25.9118 4.08443 24.7621 4.10667 22.4979C4.13335 19.3175 7.76218 15.7936 10.9196 15.8156C12.9253 15.8332 12.4583 17.3485 12.6051 18.3485Z" fill="#3EAB2C"/>
<path d="M13.6058 20.0179C13.6903 19.0444 13.499 17.3 14.9043 16.7098C16.3763 16.0931 17.6704 17.2956 18.7422 18.3176C19.5107 19.0547 20.1077 19.9489 20.4917 20.9378C20.8757 21.9268 21.0375 22.9868 20.9657 24.044C20.9657 25.2114 20.6544 26.3038 19.4937 26.8059C18.9104 27.0565 18.2635 27.1241 17.6402 26.9997C17.0169 26.8753 16.447 26.5648 16.0072 26.11C15.1732 25.3364 14.5247 24.3878 14.1091 23.3336C13.6936 22.2795 13.5216 21.1465 13.6058 20.0179Z" fill="#3EAB2C"/>
</svg>
