<svg width="26" height="26" viewBox="0 0 26 26" fill="none" xmlns="http://www.w3.org/2000/svg">
<path fill-rule="evenodd" clip-rule="evenodd" d="M13 23C18.5228 23 23 18.5228 23 13C23 7.47715 18.5228 3 13 3C7.47715 3 3 7.47715 3 13C3 18.5228 7.47715 23 13 23ZM13 26C20.1797 26 26 20.1797 26 13C26 5.8203 20.1797 0 13 0C5.8203 0 0 5.8203 0 13C0 20.1797 5.8203 26 13 26Z" fill="#004A22"/>
<path fill-rule="evenodd" clip-rule="evenodd" d="M17 10L16.9998 10.0355C17.1632 10.0121 17.3302 10 17.5 10C19.433 10 21 11.567 21 13.5C21 15.433 19.433 17 17.5 17C16.1891 17 15.0465 16.2793 14.4469 15.2125L14 17L15 24H12L12.5 18.5L12.0813 13.894C10.315 13.4789 9 11.893 9 10C9 7.79086 10.7909 6 13 6C15.2091 6 17 7.79086 17 10Z" fill="#004A22"/>
</svg>
