<svg width="68" height="51" viewBox="0 0 68 51" fill="none" xmlns="http://www.w3.org/2000/svg">
<path fill-rule="evenodd" clip-rule="evenodd" d="M30.737 3.23619C32.4898 4.98897 33.2982 7.36987 33.6642 9.381C34.0311 7.36987 34.8411 4.98897 36.5971 3.23619C40.2786 -0.438746 46.7081 0.0181377 46.7081 0.0181377C46.7081 0.0181377 47.1849 6.4741 43.5099 10.149C40.2839 13.3751 34.925 13.4018 33.6639 13.3601C32.4042 13.4018 27.0518 13.3751 23.8374 10.149C20.1757 6.4741 20.626 0.0181377 20.626 0.0181377C20.626 0.0181377 27.0621 -0.438746 30.737 3.23619ZM0 43.5413V45.1967H67.8307V43.5413C67.8307 27.8947 52.6012 15.1681 33.9154 15.1681C15.2295 15.1681 0 27.8947 0 43.5413ZM19.4474 41.8859H13.2099V36.4033H19.4474V41.8859ZM13.2099 25.1016V33.0926H19.4474V21.4606C17.1826 22.4598 15.0882 23.686 13.2099 25.1016ZM22.7581 41.8859V36.4033H32.26V41.8859H22.7581ZM22.7581 33.0926H32.26V18.5151C28.9241 18.6614 25.7285 19.2472 22.7581 20.2029V33.0926ZM35.5707 41.8859V36.4033H45.0726V41.8859H35.5707ZM35.5707 33.0926H45.0726V20.2026C42.102 19.2471 38.9063 18.6614 35.5707 18.5151V33.0926ZM48.3833 41.8859V36.4033H57.1966V41.8859H48.3833ZM48.3833 33.0926H57.1966V27.2886C54.7343 24.9272 51.7466 22.9434 48.3833 21.4599V33.0926ZM60.5073 41.8859V36.4033H63.257C63.8946 38.1586 64.303 39.994 64.4537 41.8859H60.5073ZM60.5073 33.0926H61.7336C61.3589 32.4262 60.9495 31.7754 60.5073 31.1419V33.0926ZM6.09985 33.0926H9.89916V28.0239C8.40076 29.5759 7.12146 31.276 6.09985 33.0926ZM9.89916 36.4033H4.57577C3.93772 38.1586 3.52863 39.994 3.37697 41.8859H9.89916V36.4033ZM0.484849 50.4725C0.795292 50.7829 1.21634 50.9574 1.65538 50.9574H66.1753C66.6144 50.9574 67.0354 50.7829 67.3459 50.4725C67.6563 50.1621 67.8307 49.741 67.8307 49.302C67.8307 48.8629 67.6563 48.4419 67.3459 48.1314C67.0354 47.821 66.6144 47.6466 66.1753 47.6466H1.65538C1.21634 47.6466 0.795292 47.821 0.484849 48.1314C0.174405 48.4419 0 48.8629 0 49.302C0 49.741 0.174405 50.1621 0.484849 50.4725Z" fill="#004A22"/>
</svg>
