<svg width="24" height="24" viewBox="0 0 24 24" fill="none" xmlns="http://www.w3.org/2000/svg">
<path d="M3.63917 0H19.9429C20.0741 0.0205979 20.2053 0.0370763 20.3365 0.0607639C21.2563 0.217993 22.0867 0.674539 22.6802 1.34935C23.2737 2.02415 23.592 2.87356 23.5785 3.74676C23.5785 9.17088 23.5785 14.595 23.5785 20.0191C23.5782 20.2415 23.5601 20.4635 23.5245 20.6834C23.2488 22.393 21.587 23.7618 19.7367 23.7649C14.4657 23.7752 9.19503 23.7752 3.92477 23.7649C3.52186 23.7654 3.12152 23.7048 2.73935 23.5857C1.93703 23.3432 1.23861 22.8678 0.745883 22.2286C0.25316 21.5895 -0.00809908 20.8201 0.000191379 20.0325C0.000191379 14.6002 0.000191379 9.16779 0.000191379 3.73543C0.000191379 3.60464 0.0101159 3.46972 0.0222458 3.33686C0.0988621 2.59992 0.4112 1.90158 0.918616 1.33271C1.42603 0.763837 2.10503 0.350776 2.86726 0.147275C3.11648 0.0823917 3.37782 0.0484051 3.63917 0ZM2.06448 13.2455C2.08026 13.2467 2.09612 13.2467 2.1119 13.2455C2.14057 13.2362 2.16924 13.2259 2.19681 13.2146C3.3189 12.7672 4.50998 12.4891 5.72551 12.3907C7.10756 12.2789 8.49943 12.4343 9.81439 12.8469C10.7925 13.1559 11.689 13.6101 12.5547 14.1271C14.1801 15.0962 15.9477 15.5545 17.8852 15.3547C19.1373 15.2276 20.3422 14.8371 21.4095 14.2126C21.4441 14.1939 21.4719 14.1659 21.4894 14.1323C21.5069 14.0988 21.5132 14.0611 21.5076 14.0241C21.5076 10.6042 21.5076 7.18456 21.5076 3.7653C21.511 3.65649 21.5043 3.54761 21.4878 3.43985C21.3235 2.5284 20.5637 1.93621 19.5602 1.93621H4.0185C3.89749 1.93356 3.77647 1.9408 3.65681 1.95783C2.69744 2.11747 2.06558 2.8281 2.06558 3.75088C2.06558 6.87559 2.06558 9.99961 2.06558 13.1229L2.06448 13.2455Z" fill="white"/>
<path d="M15.8346 11.504C15.0819 11.5027 14.3465 11.2804 13.7213 10.8653C13.0961 10.4501 12.6092 9.86073 12.3221 9.17157C12.0349 8.48241 11.9605 7.72441 12.1081 6.99335C12.2558 6.26229 12.6189 5.59099 13.1516 5.06427C13.6842 4.53755 14.3626 4.17905 15.1009 4.03408C15.8392 3.88911 16.6043 3.96417 17.2996 4.24977C17.9948 4.53538 18.589 5.01871 19.0071 5.63869C19.4251 6.25868 19.6482 6.98749 19.6482 7.73303C19.6441 8.73304 19.2408 9.69084 18.5263 10.3973C17.8118 11.1038 16.8441 11.5017 15.8346 11.504V11.504ZM15.8346 9.45355C16.1784 9.45333 16.5145 9.35217 16.8003 9.16284C17.0861 8.97351 17.3088 8.70452 17.4404 8.38984C17.5719 8.07517 17.6063 7.72894 17.5393 7.3949C17.4722 7.06086 17.3067 6.754 17.0636 6.5131C16.8206 6.2722 16.5109 6.10806 16.1737 6.04143C15.8365 5.9748 15.487 6.00867 15.1692 6.13875C14.8514 6.26884 14.5797 6.4893 14.3884 6.77229C14.1971 7.05527 14.0947 7.38808 14.0943 7.72866C14.0947 7.95527 14.1402 8.17957 14.2282 8.38875C14.3162 8.59793 14.4449 8.78789 14.6071 8.94777C14.7692 9.10765 14.9615 9.23432 15.1731 9.32054C15.3847 9.40676 15.6113 9.45084 15.8401 9.45027L15.8346 9.45355Z" fill="white"/>
</svg>
