<svg width="219" height="239" viewBox="0 0 219 239" fill="none" xmlns="http://www.w3.org/2000/svg">
<path fill-rule="evenodd" clip-rule="evenodd" d="M104 239C143.765 239 176 206.765 176 167C176 127.236 143.765 95 104 95C64.2355 95 32 127.236 32 167C32 206.765 64.2355 239 104 239ZM147.778 175.175C154.479 171.333 154.479 161.667 147.778 157.825L89.5193 124.423C82.8527 120.6 74.5454 125.413 74.5454 133.098L74.5454 199.902C74.5454 207.587 82.8527 212.4 89.5193 208.577L147.778 175.175Z" fill="white"/>
<path d="M4.55145 101.75L8.76102 96.5937L18.8372 104.82L26.1298 95.8878L16.0536 87.6614L20.2484 82.5234L46.9547 104.327L42.76 109.465L31.0499 99.9047L23.7572 108.837L35.4674 118.397L31.2578 123.554L4.55145 101.75Z" fill="white"/>
<path d="M54.7743 59.0008L60.8222 56.221L87.2742 82.0067L81.0771 84.8551L75.6623 79.5282L62.8849 85.4012L63.2952 93.0283L57.0982 95.8767L54.7743 59.0008ZM61.6583 65.8966L62.4274 78.5695L70.754 74.7422L61.6583 65.8966Z" fill="white"/>
<path d="M103.806 65.9773L101.605 65.8706C98.4373 65.7169 96.1043 65.4396 94.6063 65.0384C93.124 64.638 91.7218 63.8739 90.3999 62.7461C89.0787 61.6026 88.1739 60.2603 87.6855 58.7192C87.1978 57.1625 87.0149 55.1279 87.1367 52.6152L87.4682 45.7795L94.1166 46.1018L93.7909 52.8205C93.6773 55.1615 94.0196 56.8128 94.8178 57.7745C95.6159 58.7362 97.3883 59.2836 100.135 59.4168L104.115 59.6097L104.745 46.6172L111.346 46.9373L109.677 81.3734L103.075 81.0533L103.806 65.9773Z" fill="white"/>
<path d="M147.997 55.4163L154.136 57.9888L153.046 94.9133L146.756 92.2775L147.014 84.686L134.045 79.2512L128.706 84.7141L122.416 82.0782L147.997 55.4163ZM147.577 65.151L138.766 74.292L147.218 77.8336L147.577 65.151Z" fill="white"/>
<path d="M182.824 75.3092L195.991 89.0834L191.315 93.5531L186.974 89.0126L166.728 108.365L162.129 103.554L182.375 84.2009L178.148 79.7789L182.824 75.3092Z" fill="white"/>
<path d="M177.869 122.866L205.499 102.246L209.424 107.505L199 115.285L199.855 116.431C201.49 118.622 202.593 120.636 203.164 122.471C203.756 124.31 203.736 126.295 203.103 128.424C202.482 130.545 201.17 132.353 199.167 133.848C197.276 135.259 195.332 135.998 193.335 136.065C191.338 136.133 189.61 135.764 188.153 134.961C186.717 134.161 185.215 132.709 183.645 130.605L177.869 122.866ZM194.304 118.79L186.809 124.383L187.791 125.698C189.417 127.876 190.775 129.134 191.864 129.471C192.954 129.808 194.15 129.491 195.453 128.519C198.07 126.566 197.958 123.686 195.117 119.879L194.304 118.79Z" fill="white"/>
</svg>
