<svg width="28" height="28" viewBox="0 0 28 28" fill="none" xmlns="http://www.w3.org/2000/svg">
<path d="M14.0641 0.0487598C11.2947 0.0362062 8.58374 0.837518 6.27418 2.35133C3.96463 3.86514 2.16023 6.02344 1.08924 8.55319C0.0182525 11.083 -0.271209 13.8705 0.257474 16.5632C0.786158 19.256 2.10923 21.7329 4.05933 23.6807C6.00943 25.6285 8.49894 26.9596 11.2129 27.5057C13.9269 28.0519 16.7435 27.7884 19.3062 26.7487C21.869 25.709 24.063 23.9397 25.6104 21.6647C27.1579 19.3898 27.9895 16.7113 27.9999 13.9681C28.0139 10.2923 26.5538 6.76129 23.9407 4.15123C21.3275 1.54117 17.7751 0.0655816 14.0641 0.0487598ZM22.0207 11.992C22.2599 12.0614 22.6041 11.992 22.4641 12.4947C22.3241 12.9974 22.0966 12.8876 21.7641 12.7836C20.8716 12.5178 19.9732 12.2867 19.0866 12.0151C18.9205 11.9552 18.7428 11.9334 18.567 11.9514C18.3911 11.9694 18.2217 12.0268 18.0716 12.1191C17.5407 12.4427 16.9807 12.6969 16.4324 13.0205C16.3265 13.1143 16.2417 13.2291 16.1837 13.3576C16.1257 13.486 16.0957 13.6252 16.0957 13.7659C16.0957 13.9066 16.1257 14.0457 16.1837 14.1742C16.2417 14.3026 16.3265 14.4175 16.4324 14.5113C16.4672 14.5251 16.5005 14.5425 16.5316 14.5633C17.1221 15.0604 17.8514 15.3676 18.6226 15.444C19.3937 15.5203 20.17 15.3623 20.8482 14.9908C21.1684 14.8756 21.4957 14.781 21.8282 14.7077C22.0907 14.6268 22.3066 14.517 22.4116 14.9331C22.5166 15.3491 22.4116 15.4184 22.0732 15.5109C21.2857 15.7073 20.5041 15.9442 19.5941 16.2042L21.5191 17.2789C21.8166 17.4407 22.1024 17.5967 22.4174 17.7643C23.0474 18.111 23.0824 18.5212 22.5691 19.0355C22.3824 19.2204 22.2541 19.0355 22.1257 18.995L19.7924 17.7239L19.0632 17.3367C19.225 18.1701 19.4472 18.9908 19.7282 19.7924C19.8157 20.0929 19.7632 20.2142 19.4599 20.324C19.1566 20.4338 19.0049 20.3818 18.9116 20.0466C18.6432 19.0875 18.3282 18.1399 18.0657 17.1576C18.0376 16.9998 17.9692 16.8517 17.8672 16.7273C17.7651 16.6029 17.6327 16.5064 17.4824 16.4469C17.1207 16.2967 16.7824 16.0713 16.4382 15.8691C15.5049 15.3664 15.5107 15.3722 14.5949 15.8691C14.3966 15.9789 14.3966 16.1176 14.3966 16.2851C14.3966 16.9958 14.3966 17.7123 14.3966 18.423C14.3981 18.5337 14.424 18.6427 14.4723 18.7425C14.5207 18.8422 14.5904 18.9304 14.6766 19.0008C15.4057 19.7173 16.1174 20.4453 16.8466 21.156C17.0741 21.3814 17.1382 21.5316 16.8466 21.7858C16.5549 22.0401 16.4557 22.0227 16.2166 21.7858C15.6332 21.208 15.0499 20.6302 14.4666 20.0524C14.2857 20.1449 14.3732 20.3124 14.3732 20.4453C14.3732 21.4391 14.3732 22.4388 14.3732 23.4326C14.3732 23.8139 14.3266 23.9237 13.8307 23.8948C13.1541 23.8544 13.1366 23.5713 13.1541 23.0686C13.1891 22.1845 13.1541 21.3005 13.1541 20.4222C13.1541 20.2951 13.2124 20.1275 13.0841 20.0582C12.9557 19.9889 12.8216 20.1564 12.7224 20.2546C12.2207 20.74 11.7249 21.2254 11.2407 21.7281C11.0249 21.9534 10.8849 21.9707 10.6574 21.7281C10.4299 21.4854 10.4999 21.3467 10.6982 21.1502C11.4157 20.4511 12.1157 19.7346 12.8274 19.0355C12.9419 18.937 13.0323 18.814 13.0919 18.6759C13.1515 18.5378 13.1788 18.3881 13.1716 18.2381C13.1716 17.6025 13.1716 16.9612 13.1716 16.3256C13.1716 16.0135 13.0141 15.9095 12.7982 15.7478C12.1741 15.17 11.6841 15.4993 11.0482 15.7478C10.5329 15.9254 10.0783 16.2427 9.73595 16.6635C9.3936 17.0843 9.17728 17.5918 9.11157 18.1283C9.02407 18.735 8.7499 19.3128 8.60407 19.9137C8.51657 20.2662 8.3299 20.2315 8.06157 20.1738C7.79324 20.116 7.72907 19.9657 7.8224 19.7C8.0499 19.0239 8.2424 18.3363 8.4524 17.6545C8.48479 17.5857 8.4991 17.5099 8.494 17.4341C8.4889 17.3584 8.46456 17.2851 8.42324 17.2212C7.47824 17.7296 6.52157 18.215 5.59991 18.7639C5.16241 19.0239 5.01657 18.9372 4.74824 18.5212C4.47991 18.1052 4.61407 17.9434 5.01074 17.7354C5.98491 17.2385 6.92991 16.6954 8.04407 16.0829C7.06407 15.8113 6.29407 15.5629 5.46574 15.3722C5.1099 15.2855 5.08657 15.17 5.15657 14.8348C5.22657 14.4997 5.43657 14.5459 5.68157 14.6153C6.67907 14.8926 7.68824 15.1931 8.68574 15.4473C8.78013 15.4817 8.88068 15.4963 8.98106 15.4904C9.08145 15.4844 9.17951 15.4579 9.26907 15.4126C9.88157 15.0717 10.5057 14.7597 11.1124 14.4072C11.2292 14.3121 11.3224 14.1917 11.3847 14.0552C11.4469 13.9187 11.4767 13.7699 11.4716 13.6202C11.4665 13.4705 11.4268 13.3239 11.3554 13.1919C11.284 13.0599 11.1829 12.9459 11.0599 12.8587C10.6828 12.6923 10.3182 12.4992 9.96907 12.2809C9.67187 12.0545 9.31688 11.9146 8.9439 11.8769C8.57092 11.8391 8.1947 11.905 7.85741 12.0671C7.11074 12.3271 6.32324 12.4832 5.57074 12.7258C5.29074 12.8125 5.20324 12.7605 5.13324 12.5005C5.06324 12.2405 5.00491 12.0729 5.33157 11.9805C6.00824 11.7956 6.67907 11.5991 7.34991 11.4027C7.55407 11.3836 7.7455 11.2959 7.89241 11.1542C6.94741 10.7035 5.9499 10.1257 4.95824 9.62301C4.37491 9.33988 4.77157 9.09143 4.87657 8.79675C5.01657 8.40962 5.20324 8.39228 5.54741 8.58874C6.49824 9.13188 7.46657 9.63457 8.4174 10.1488C8.6099 9.97547 8.51074 9.8368 8.4699 9.7039C8.27157 9.03365 8.09657 8.36339 7.88657 7.70469C7.77574 7.39268 7.88657 7.28867 8.16074 7.20778C8.43491 7.12689 8.57491 7.20778 8.66241 7.52557C8.91907 8.48473 9.24574 9.42656 9.51407 10.3799C9.5549 10.5244 9.5724 10.7324 9.6774 10.7902C10.4347 11.282 11.2329 11.7092 12.0632 12.0671C12.3082 12.1654 12.7749 11.7436 13.1249 11.5298C13.3116 11.4084 13.2241 11.1831 13.2241 11.004C13.2241 8.69274 13.2241 8.69274 11.5557 7.04022C11.2991 6.79176 11.0599 6.52019 10.7916 6.28329C10.5232 6.04639 10.4824 5.93661 10.7624 5.67659C11.0424 5.41658 11.1532 5.53792 11.3457 5.73437C11.9269 6.35822 12.5548 6.93768 13.2241 7.46779V6.49708C13.2241 5.76904 13.2241 5.03523 13.2241 4.30141C13.2241 3.5676 13.5624 3.39426 14.2391 3.5676C14.5249 3.63694 14.4316 3.85073 14.4316 4.01829C14.4316 5.14501 14.4316 6.27173 14.4316 7.48513C15.0791 6.8611 15.6916 6.29485 16.2691 5.69971C16.5082 5.45703 16.6657 5.42814 16.9107 5.69971C17.1557 5.97127 17.1499 6.06372 16.9107 6.27751C16.1641 6.99977 15.4466 7.74514 14.6999 8.47318C14.609 8.55196 14.5371 8.64999 14.4897 8.76002C14.4422 8.87004 14.4204 8.98923 14.4257 9.10876C14.4257 9.76746 14.4549 10.4262 14.4257 11.0849C14.4257 11.42 14.6124 11.5124 14.8282 11.7089C15.4699 12.2867 15.9482 11.8591 16.5257 11.6338C17.032 11.467 17.48 11.1612 17.8177 10.752C18.1554 10.3429 18.3688 9.84716 18.4332 9.32255C18.5324 8.69852 18.8066 8.10338 18.9582 7.48513C19.0632 7.06333 19.3024 7.20778 19.5416 7.25401C19.7807 7.30023 19.8216 7.50246 19.7457 7.73936C19.5066 8.5194 19.2791 9.31099 18.9932 10.2759L20.6441 9.37455C21.1399 9.10876 21.6474 8.84875 22.1374 8.56563C22.3999 8.40962 22.5807 8.39806 22.7207 8.72163C22.7698 8.86506 22.8385 9.00114 22.9249 9.1261C23.1116 9.36878 23.0474 9.49011 22.7849 9.62879C21.7641 10.1661 20.7607 10.7208 19.6291 11.3622C20.4924 11.5471 21.2624 11.7609 22.0207 11.992Z" fill="white"/>
</svg>
