<svg width="20" height="28" viewBox="0 0 20 28" fill="none" xmlns="http://www.w3.org/2000/svg">
<path d="M9.9605 27.7833C8.18855 27.7833 6.41661 27.7833 4.64466 27.7833C3.79218 27.7833 3.30505 27.5119 3.42683 26.613C3.4535 25.8977 3.22256 25.1963 2.77529 24.6342C0.796314 21.449 0.211753 17.9078 0.223931 14.2338C0.194582 14.0197 0.243524 13.8023 0.361905 13.6208C0.480286 13.4394 0.660295 13.3059 0.869383 13.2445C1.52701 13.0695 1.38696 12.7317 1.1434 12.2852C0.346728 10.9509 -0.048348 9.41872 0.00472341 7.86929C-0.011804 7.66287 0.0179045 7.45539 0.091725 7.26167C0.165546 7.06795 0.281654 6.89278 0.43175 6.74868C0.581847 6.60459 0.762223 6.49513 0.959983 6.42813C1.15774 6.36113 1.368 6.33824 1.57573 6.36111C2.80112 6.27198 4.02841 6.50724 5.1318 7.04281C6.06344 7.53146 6.19131 7.13933 6.24002 6.34904C6.32508 4.65561 6.90003 3.02215 7.89628 1.64352L8.15202 1.29965C9.49772 -0.36538 10.5146 -0.371413 11.8542 1.29965C13.0364 2.77012 13.709 4.57878 13.7723 6.45763C13.7723 7.20569 13.9245 7.5013 14.7527 7.06091C15.8794 6.48921 17.1442 6.2386 18.4062 6.33698C19.5875 6.4154 19.9224 6.74117 19.9954 7.92359C20.046 9.40305 19.6746 10.8667 18.9237 12.1465C18.6619 12.6412 18.4001 13.0393 19.216 13.2565C19.7153 13.3892 19.8249 13.8598 19.8249 14.3002C19.8249 18.1189 19.216 21.7928 16.9874 25.0445C16.7376 25.3966 16.6133 25.8211 16.6342 26.251C16.6342 27.6265 16.4881 27.7592 15.051 27.7652L9.9605 27.7833ZM12.1526 7.59782C12.0065 5.55272 11.7081 4.02041 10.7643 2.68718C10.1554 1.84863 9.85698 1.8607 9.24807 2.68718C8.34794 3.87559 7.89227 5.33678 7.95891 6.82111C8.02555 8.30544 8.61036 9.72078 9.61342 10.8253C9.82045 11.0606 10.0336 11.326 10.2893 10.9701C11.1174 9.8239 12.3779 8.82246 12.1526 7.59782ZM6.26438 13.1117V13.1841C6.90983 13.1841 7.56137 13.1841 8.20682 13.1841C8.85227 13.1841 8.85227 12.9368 8.60262 12.5266C7.22038 10.216 5.39363 8.49066 2.56826 8.10457C1.95934 8.02614 1.7584 8.23125 1.78885 8.79833C1.93871 10.269 2.56701 11.6516 3.57906 12.7377C4.18798 13.4858 5.07699 12.9669 5.83205 13.0997C5.97556 13.1158 6.12018 13.1198 6.26438 13.1117ZM13.4374 13.1117C14.3021 13.1117 14.9171 13.1117 15.5321 13.1117C15.6886 13.1398 15.8496 13.1298 16.0013 13.0825C16.153 13.0352 16.2908 12.9521 16.4028 12.8403C17.3726 11.7674 18.0072 10.4387 18.2296 9.01551C18.3087 8.30968 18.0774 8.04424 17.3162 8.15283C15.051 8.48463 13.4374 9.7877 12.0917 11.501C11.7324 11.9595 11.0809 12.5266 11.4036 13.0574C11.6472 13.4616 12.4692 13.1841 13.0355 13.1781C13.1707 13.1702 13.305 13.152 13.4374 13.1238V13.1117Z" fill="white"/>
</svg>
