<svg width="92" height="92" viewBox="0 0 92 92" fill="none" xmlns="http://www.w3.org/2000/svg">
<path fill-rule="evenodd" clip-rule="evenodd" d="M46 82C65.8822 82 82 65.8822 82 46C82 26.1177 65.8822 10 46 10C26.1177 10 10 26.1177 10 46C10 65.8822 26.1177 82 46 82ZM46 92C71.4051 92 92 71.4051 92 46C92 20.5949 71.4051 0 46 0C20.5949 0 0 20.5949 0 46C0 71.4051 20.5949 92 46 92Z" fill="#004A22"/>
<path d="M28 44.8111L40.3636 59.2258L62 34" stroke="#004A22" stroke-width="8" stroke-linecap="round"/>
</svg>
