<svg width="26" height="26" viewBox="0 0 26 26" fill="none" xmlns="http://www.w3.org/2000/svg">
<path fill-rule="evenodd" clip-rule="evenodd" d="M12.0946 22.9596C6.99601 22.502 3 18.2177 3 13C3 7.47715 7.47715 3 13 3C18.5228 3 23 7.47715 23 13C23 17.8967 19.4805 21.9713 14.8332 22.8323L14 17L14.4469 15.2125C15.0465 16.2793 16.1891 17 17.5 17C19.433 17 21 15.433 21 13.5C21 11.567 19.433 10 17.5 10C17.3302 10 17.1632 10.0121 16.9998 10.0355L17 10C17 7.79086 15.2091 6 13 6C10.7909 6 9 7.79086 9 10C9 10.042 9.00065 10.0838 9.00193 10.1255C7.27572 10.5689 6 12.1355 6 14C6 16.2091 7.79086 18 10 18C10.8929 18 11.7174 17.7075 12.383 17.213L12.5 18.5L12.0946 22.9596ZM26 13C26 20.1797 20.1797 26 13 26C5.8203 26 0 20.1797 0 13C0 5.8203 5.8203 0 13 0C20.1797 0 26 5.8203 26 13Z" fill="#004A22"/>
</svg>
