<svg width="26" height="26" viewBox="0 0 26 26" fill="none" xmlns="http://www.w3.org/2000/svg">
<circle cx="13" cy="10" r="4" fill="#004A22"/>
<path fill-rule="evenodd" clip-rule="evenodd" d="M13 23C18.5228 23 23 18.5228 23 13C23 7.47715 18.5228 3 13 3C7.47715 3 3 7.47715 3 13C3 18.5228 7.47715 23 13 23ZM13 26C20.1797 26 26 20.1797 26 13C26 5.8203 20.1797 0 13 0C5.8203 0 0 5.8203 0 13C0 20.1797 5.8203 26 13 26Z" fill="#004A22"/>
<mask id="mask0_102_5" style="mask-type:alpha" maskUnits="userSpaceOnUse" x="0" y="0" width="26" height="26">
<circle cx="13" cy="13" r="13" fill="#C4C4C4"/>
</mask>
<g mask="url(#mask0_102_5)">
<path d="M6 22C6 18.134 9.13401 15 13 15C16.866 15 20 18.134 20 22V31H6V22Z" fill="#004A22"/>
</g>
</svg>
