<svg width="28" height="29" viewBox="0 0 28 29" fill="none" xmlns="http://www.w3.org/2000/svg">
<path d="M13.8157 0.907166H14.1421C14.3385 0.951729 14.5171 1.05311 14.6553 1.19843C14.7934 1.34375 14.8848 1.52646 14.9179 1.72335C14.9179 2.64553 14.9179 3.56771 14.9179 4.4952C14.9312 4.72056 14.8615 4.94304 14.7218 5.12139C14.5821 5.29974 14.3818 5.42185 14.1581 5.46508L14.019 5.49158L13.484 5.38028C13.2873 5.24708 13.1302 5.06406 13.0292 4.85029L12.9971 4.69129L13.0185 4.5482V4.1719C13.0506 3.90254 13.0506 3.63038 13.0185 3.36102V2.55543V1.74985C13.0488 1.54563 13.1414 1.35546 13.2839 1.20485C13.4264 1.05423 13.6119 0.950362 13.8157 0.907166Z" fill="#E8672F"/>
<path d="M14.7843 24.4441C14.8902 24.677 14.9415 24.9307 14.9342 25.186C14.9342 25.9227 14.9342 26.6594 14.9342 27.3908C14.9342 28.1222 14.7843 28.3448 14.1476 28.5992H13.7677C13.5147 28.5107 13.3011 28.337 13.1642 28.1084C13.0272 27.8798 12.9757 27.6108 13.0186 27.3484C13.0186 26.6064 13.0186 25.8591 13.0186 25.1118C13.0087 24.8801 13.0604 24.6498 13.1685 24.4441L13.4253 24.1738C13.6768 24.044 13.965 24.0011 14.2439 24.0519C14.4511 24.1415 14.6357 24.2754 14.7843 24.4441Z" fill="#E8672F"/>
<path d="M12.6116 22.0061C12.4029 21.9107 12.1354 21.9796 11.9535 21.8789C11.6431 21.7146 11.306 21.6457 10.9957 21.4973L10.9208 21.4655L10.8405 21.4178L10.7549 21.3701C10.3222 21.1442 9.9057 20.8893 9.50823 20.6069L9.17649 20.3366L8.64143 19.849C8.55039 19.7016 8.43245 19.5722 8.29364 19.4675L7.81208 18.8209L7.66762 18.6195L7.30377 17.9464C7.06433 17.4342 6.87096 16.9022 6.72591 16.3564L6.59749 15.519L6.55469 14.7134V14.2258C6.56805 14.2053 6.57516 14.1814 6.57516 14.1569C6.57516 14.1325 6.56805 14.1086 6.55469 14.088C6.59749 14.0509 6.59214 14.0032 6.58679 13.9502L6.74731 13.0969C6.88524 12.5837 7.06416 12.0822 7.28237 11.5971C7.60668 10.9668 8.00932 10.3793 8.48091 9.8481L8.52907 9.7845L9.2728 9.04251H9.29955C9.83901 8.63284 10.4243 8.28606 11.0439 8.00903L11.7555 7.74933C12.3465 7.59334 12.9496 7.48696 13.5586 7.43134H14.2168C14.7453 7.47534 15.2707 7.55145 15.7899 7.65923L16.662 7.94543C17.2622 8.17504 17.8346 8.47012 18.3688 8.82521C18.4577 8.91861 18.5652 8.99262 18.6845 9.04251C18.8352 9.21189 19.0038 9.3647 19.1875 9.4983L19.5139 9.8481L19.974 10.447L20.1399 10.6749C20.4817 11.2159 20.7718 11.7872 21.0067 12.3815L21.2154 13.0969L21.3705 13.9926V14.2258V14.7134L21.3224 15.519L21.2047 16.3299L21.0442 17.1408C20.8363 17.647 20.5987 18.1408 20.3325 18.6195L19.9205 19.1919C19.8323 19.2641 19.7611 19.3545 19.7119 19.4569L19.0912 20.1034C18.9898 20.1555 18.9033 20.2321 18.8397 20.326L18.2244 20.8136C18.0353 20.9029 17.856 21.0112 17.6893 21.1369L17.5234 21.2376L17.2559 21.3595L17.1703 21.4072C17.0792 21.4184 16.9944 21.4595 16.9295 21.5238C16.909 21.5212 16.8881 21.5243 16.8692 21.5327C16.8504 21.5412 16.8342 21.5546 16.8225 21.5715C16.7797 21.5715 16.7369 21.5715 16.7048 21.6033C16.1559 21.8017 15.59 21.9507 15.014 22.0485H14.7572L14.5218 22.075H14.2542L13.2162 22.0326L12.831 21.9743C12.8227 21.9701 12.8135 21.9679 12.8042 21.9679C12.7949 21.9679 12.7857 21.9701 12.7775 21.9743L12.6116 22.0061ZM19.439 14.2205V13.9502C19.353 13.3103 19.1383 12.694 18.8076 12.1377C18.7179 11.9293 18.593 11.7375 18.4384 11.5706L18.2618 11.3374C18.0716 11.0819 17.8486 10.852 17.5984 10.6537L17.5449 10.6007C17.3283 10.4026 17.0852 10.2349 16.8225 10.1025C16.2939 9.76456 15.7028 9.53397 15.0836 9.42411H14.9231L14.8 9.38701H14.5271H14.3987C14.0569 9.33923 13.7094 9.34999 13.3714 9.41881H13.152L12.9915 9.4612H12.8256L12.7186 9.5089H12.6062C12.0173 9.64586 11.4599 9.89225 10.9636 10.235C10.7669 10.3413 10.5866 10.4752 10.4285 10.6325L10.0861 10.9505C9.93686 11.0645 9.80992 11.2046 9.71155 11.3639C9.26975 11.8689 8.93819 12.4589 8.73774 13.0969V13.1711C8.66818 13.24 8.68423 13.3407 8.64678 13.4202V13.5315L8.60397 13.6375V13.8018C8.51968 14.0896 8.47469 14.3873 8.47021 14.6869V15.0155C8.4519 15.1251 8.46679 15.2376 8.51301 15.3388V15.5031C8.54872 15.8393 8.62415 16.1701 8.73774 16.4889C8.80403 16.7391 8.91062 16.9772 9.05343 17.1938C9.08564 17.3378 9.15793 17.47 9.2621 17.5754L9.32631 17.6814L9.37446 17.7503C9.37446 17.8457 9.44937 17.8934 9.50288 17.9517C9.67998 18.2203 9.89431 18.4629 10.1396 18.6725L10.2466 18.7679C10.4523 18.9827 10.6928 19.1618 10.9582 19.2979C11.3743 19.6149 11.8486 19.8489 12.3548 19.9868C12.3636 20.0021 12.3774 20.0141 12.3938 20.0208C12.4103 20.0275 12.4285 20.0286 12.4457 20.0239H12.5527C12.887 20.1393 13.237 20.2037 13.5907 20.2147C13.8113 20.2386 14.0337 20.2386 14.2542 20.2147C14.53 20.2103 14.8044 20.1765 15.0729 20.114L15.5116 20.0027C15.5294 20.0081 15.5485 20.0067 15.5653 19.9989C15.5822 19.9911 15.5954 19.9773 15.6026 19.9603C15.7149 19.9603 15.8006 19.9126 15.8969 19.8702C16.089 19.8256 16.2707 19.7446 16.4319 19.6318C16.5163 19.6264 16.5951 19.5883 16.6513 19.5258L16.7262 19.4834C16.9166 19.3944 17.0961 19.2841 17.2613 19.1548C17.968 18.6499 18.5333 17.975 18.9039 17.1938C19.0371 16.9982 19.1298 16.7785 19.1768 16.5472C19.1939 16.5356 19.2075 16.5196 19.2159 16.5009C19.2244 16.4822 19.2276 16.4615 19.2249 16.4412C19.2302 16.4354 19.2331 16.4278 19.2331 16.42C19.2331 16.4122 19.2302 16.4046 19.2249 16.3988C19.3052 16.3193 19.2678 16.2027 19.3159 16.1179V16.0066L19.3587 15.9006V15.7363C19.4484 15.4031 19.4827 15.0576 19.4604 14.7134V14.3795L19.439 14.2205Z" fill="#E8672F"/>
<path d="M5.56408 24.4388L5.23769 24.7091C4.98227 24.8311 4.68946 24.852 4.41904 24.7674C4.25703 24.6826 4.11053 24.5716 3.98564 24.4388C3.90746 24.3193 3.85438 24.1855 3.82955 24.0452C3.80473 23.905 3.80868 23.7613 3.84117 23.6226C3.93214 23.294 4.22642 23.0926 4.41904 22.87L4.47255 22.817L5.23769 22.0591L5.29119 22.0061L6.06168 21.2535L6.2008 21.1528C6.41381 21.0648 6.64494 21.0285 6.87498 21.0468L7.30838 21.2641C7.44382 21.4024 7.54621 21.569 7.60801 21.7517L7.65082 22.0167V22.1757C7.5617 22.4245 7.41298 22.6482 7.21742 22.8276L6.83217 23.2039C6.67198 23.3325 6.52663 23.4782 6.39877 23.6385L6.01353 24.0148C5.84706 24.1377 5.69615 24.2801 5.56408 24.4388Z" fill="#E8672F"/>
<path d="M24.1202 23.6332C24.154 23.7677 24.1579 23.908 24.1317 24.0442C24.1055 24.1804 24.0498 24.3094 23.9684 24.4222C23.887 24.5351 23.7819 24.6291 23.6603 24.6978C23.5388 24.7665 23.4036 24.8083 23.2641 24.8203C22.9842 24.8305 22.7114 24.7316 22.5043 24.5447L22.3973 24.4387L21.6857 23.7339L21.5786 23.6279C21.3381 23.3578 21.0808 23.1029 20.8082 22.8647L20.7546 22.817C20.5098 22.6109 20.3514 22.3218 20.3105 22.0061C20.322 21.7208 20.4447 21.451 20.653 21.2535L20.8938 21.0998C21.1315 21.0203 21.3891 21.0203 21.6268 21.0998L21.8943 21.2641L22.3919 21.7464C22.4812 21.872 22.5916 21.9813 22.7183 22.0697C22.866 22.2477 23.0308 22.411 23.2106 22.5573C23.3018 22.6829 23.414 22.7923 23.5423 22.8806L24.0078 23.3735L24.1202 23.6332Z" fill="#E8672F"/>
<path d="M5.15809 4.77604L5.51123 5.03574C5.65606 5.2163 5.82121 5.37989 6.00349 5.52335C6.09271 5.6489 6.20313 5.75827 6.32988 5.84665C6.47612 6.02594 6.64113 6.18939 6.82213 6.33425C6.91136 6.4598 7.02177 6.56917 7.14852 6.65756C7.35214 6.83756 7.50983 7.06278 7.60867 7.31476L7.64078 7.41546V7.73877C7.57769 7.91352 7.48545 8.07655 7.36789 8.22107C7.21996 8.33449 7.05588 8.42558 6.88099 8.49137C6.58997 8.52699 6.29638 8.44906 6.06234 8.27407L6.01419 8.22637L5.30256 7.52146L5.19019 7.41546L4.45716 6.66816L4.3876 6.60456C4.13745 6.38806 3.95232 6.1075 3.85254 5.79365V5.40145C3.86782 5.39226 3.88004 5.37881 3.88765 5.36279C3.89526 5.34676 3.89794 5.32887 3.89534 5.31135L4.00771 5.09404C4.15666 4.93456 4.33938 4.80967 4.54277 4.72834C4.74906 4.70466 4.95803 4.72086 5.15809 4.77604Z" fill="#E8672F"/>
<path d="M21.6329 5.84664L21.6864 5.79364L22.4516 5.03576L22.5639 4.92977C22.7679 4.78006 23.0164 4.70176 23.2702 4.70717C23.4148 4.71906 23.5547 4.76332 23.6795 4.83661C23.8043 4.90991 23.9106 5.01031 23.9905 5.13026C24.0703 5.2502 24.1217 5.38655 24.1406 5.52901C24.1594 5.67148 24.1454 5.81633 24.0995 5.95264V6.03744C23.9486 6.23731 23.7842 6.42677 23.6073 6.60452L23.222 6.98081C23.0644 7.11221 22.9194 7.25768 22.7886 7.4154L22.4034 7.79169L21.9646 8.22628L21.6436 8.44357C21.3729 8.52552 21.0811 8.50474 20.825 8.38527L20.6109 8.22098C20.5127 8.11184 20.4375 7.98436 20.3897 7.84601C20.3419 7.70767 20.3225 7.56127 20.3327 7.4154C20.4217 7.12203 20.5923 6.85939 20.825 6.65752L20.8785 6.60452L21.6329 5.84664Z" fill="#E8672F"/>
<path d="M3.80964 13.8283L4.19488 13.9661L4.41425 14.1781L4.58548 14.4961C4.64336 14.7086 4.62609 14.9344 4.53655 15.1359C4.447 15.3374 4.29057 15.5025 4.09322 15.6038C3.92506 15.6781 3.74226 15.7143 3.55816 15.7098C2.74486 15.7098 1.95297 15.7098 1.12363 15.7098C0.8527 15.723 0.584083 15.6546 0.35314 15.5137C0.135524 15.3042 0.00885053 15.0191 0 14.7187C0.0198682 14.5002 0.112748 14.2945 0.263934 14.1342C0.415121 13.9739 0.615974 13.8681 0.834695 13.8336H1.97973C2.01183 13.8336 2.03323 13.8336 2.05999 13.8336C2.08674 13.8336 2.12954 13.8919 2.167 13.8336H2.2205C2.25974 13.8901 2.2972 13.8901 2.33287 13.8336H2.38637C2.42383 13.8919 2.45593 13.8919 2.49339 13.8336H2.55224C2.58435 13.8919 2.6218 13.8919 2.65925 13.8336H2.78767L3.80964 13.8283Z" fill="#E8672F"/>
<path d="M27.3629 15.6409C26.9643 15.7142 26.558 15.7373 26.1536 15.7098C25.6186 15.7098 25.0354 15.7098 24.4789 15.7098C24.1809 15.7242 23.8867 15.6383 23.6442 15.466C23.5133 15.323 23.4164 15.1527 23.3606 14.9678C23.3257 14.779 23.3453 14.5843 23.4172 14.4062C23.4892 14.228 23.6105 14.0736 23.7673 13.9608L23.9224 13.8813C24.0454 13.8515 24.1707 13.832 24.297 13.823C25.244 13.823 26.1965 13.823 27.1435 13.823H27.3094L27.5234 13.929C27.6532 14.02 27.7625 14.1367 27.8445 14.2717C27.9265 14.4068 27.9793 14.5571 27.9996 14.7134C27.9881 14.9854 27.8866 15.2462 27.7107 15.4554L27.3629 15.6409Z" fill="#E8672F"/>
</svg>
