<svg width="28" height="24" viewBox="0 0 28 24" fill="none" xmlns="http://www.w3.org/2000/svg">
<path d="M15.0308 2.15793C17.896 6.22181 20.6648 10.0087 22.3297 14.3722C22.9203 15.8279 22.9727 17.4272 22.4783 18.9141C21.984 20.401 20.9716 21.6895 19.6031 22.5734C18.2554 23.4787 16.636 23.9604 14.9777 23.9493C13.3195 23.9381 11.7077 23.4346 10.3739 22.5112C9.02052 21.6072 8.02993 20.3038 7.56076 18.8097C7.09158 17.3156 7.17095 15.7172 7.78615 14.2704C9.45706 9.95786 12.1957 6.20485 15.0308 2.15793ZM21.5274 16.503C21.5817 15.8813 21.4128 15.3274 20.6708 15.2539C20.0314 15.1917 19.76 15.6213 19.6876 16.2091C19.3498 18.8995 17.7874 20.4765 14.8619 20.7817C14.1983 20.8495 13.6554 21.0812 13.7821 21.8047C13.8907 22.3699 14.3853 22.5508 14.9885 22.5621C18.1856 22.613 21.5937 19.4421 21.5274 16.503Z" fill="#5EBAEE"/>
<path d="M24.8591 0.17688C26.1701 1.95934 27.1869 3.88408 27.8816 5.898C28.069 6.42613 28.0323 6.9928 27.7779 7.50061C27.5235 8.00841 27.0672 8.42563 26.4876 8.68055C25.9728 8.97017 25.3616 9.11329 24.7434 9.08895C24.1252 9.06462 23.5324 8.87412 23.0519 8.54532C22.536 8.25753 22.1455 7.83574 21.9395 7.34393C21.7336 6.85211 21.7235 6.31709 21.9107 5.81999C22.6504 3.85514 23.6389 1.96319 24.8591 0.17688Z" fill="#5EBAEE"/>
<path d="M2.64814 6.12003C3.57148 7.53036 4.33515 9.0225 4.92737 10.5735C5.37955 11.6868 5.30623 12.8002 4.14522 13.5462C3.71461 13.8682 3.17472 14.0443 2.61758 14.0443C2.06045 14.0443 1.52056 13.8682 1.08995 13.5462C-0.0343926 12.7946 -0.242152 11.7815 0.252803 10.6125C0.841847 9.0296 1.64658 7.52033 2.64814 6.12003Z" fill="#5EBAEE"/>
</svg>
