<svg width="28" height="28" viewBox="0 0 28 28" fill="none" xmlns="http://www.w3.org/2000/svg">
<path d="M26.5 14C26.5 20.9036 20.9036 26.5 14 26.5C7.09644 26.5 1.5 20.9036 1.5 14C1.5 7.09644 7.09644 1.5 14 1.5C20.9036 1.5 26.5 7.09644 26.5 14Z" stroke="white" stroke-width="3"/>
<path fill-rule="evenodd" clip-rule="evenodd" d="M13 20H18.7332C19.3694 20 19.8852 19.4842 19.8852 18.848C19.8852 18.3241 19.5348 17.882 19.0559 17.7421C19.5196 17.2682 19.8036 16.6305 19.8036 15.929C19.8036 14.4661 18.5682 13.2802 17.0443 13.2802C16.888 13.2802 16.7347 13.2927 16.5854 13.3167C16.4404 12.1161 15.4591 11.1603 14.2153 11L13 20Z" fill="white"/>
<path fill-rule="evenodd" clip-rule="evenodd" d="M13.9763 7.91016C13.4994 7.35303 12.7911 7 12.0003 7C10.5643 7 9.40027 8.16406 9.40027 9.59998C9.40027 9.80762 9.42462 10.0096 9.47058 10.2031C8.09479 10.2706 7 11.4075 7 12.8C7 14.236 8.16406 15.4 9.60004 15.4C10.1154 15.4 10.5958 15.2501 10.9999 14.9913V18.2001H9.6004C9.0481 18.2001 8.59991 18.6478 8.59991 19.2001C8.59991 19.7523 9.04767 20.2001 9.59998 20.2001H12.1555L13.9763 7.91016Z" fill="white"/>
</svg>
