<svg width="28" height="28" viewBox="0 0 28 28" fill="none" xmlns="http://www.w3.org/2000/svg">
<path fill-rule="evenodd" clip-rule="evenodd" d="M25 14C25 20.0751 20.0751 25 14 25C7.92487 25 3 20.0751 3 14C3 7.92487 7.92487 3 14 3C20.0751 3 25 7.92487 25 14ZM28 14C28 21.732 21.732 28 14 28C6.26801 28 0 21.732 0 14C0 6.26801 6.26801 0 14 0C21.732 0 28 6.26801 28 14ZM16.53 10.2032C16.576 10.0096 16.6003 9.80766 16.6003 9.60002C16.6003 8.16407 15.4362 7 14.0003 7C12.5643 7 11.4003 8.16407 11.4003 9.60002C11.4003 9.80765 11.4246 10.0096 11.4706 10.2032C10.0948 10.2706 9 11.4075 9 12.8C9 14.236 10.1641 15.4 11.6 15.4C12.1154 15.4 12.5958 15.2501 12.9999 14.9914V18.2001H11.6004C11.0481 18.2001 10.5999 18.6478 10.5999 19.2001C10.5999 19.7524 11.0477 20.2001 11.5999 20.2001H16.4C16.9523 20.2001 17.4 19.7524 17.4 19.2001C17.4 18.6478 16.9518 18.2001 16.3995 18.2001H15V14.9912C15.4041 15.25 15.8846 15.4 16.4002 15.4C17.8361 15.4 19.0002 14.236 19.0002 12.8C19.0002 11.4076 17.9056 10.2708 16.53 10.2032Z" fill="white"/>
</svg>
