<svg width="28" height="28" viewBox="0 0 28 28" fill="none" xmlns="http://www.w3.org/2000/svg">
<path fill-rule="evenodd" clip-rule="evenodd" d="M25 14C25 20.0751 20.0751 25 14 25C7.92487 25 3 20.0751 3 14C3 7.92487 7.92487 3 14 3C20.0751 3 25 7.92487 25 14ZM28 14C28 21.732 21.732 28 14 28C6.26801 28 0 21.732 0 14C0 6.26801 6.26801 0 14 0C21.732 0 28 6.26801 28 14ZM19.9185 14.1593C19.9185 14.894 19.6313 15.5617 19.1631 16.0561C19.6482 16.2102 20 16.6641 20 17.2C20 17.8627 19.4627 18.4 18.8 18.4L9.2 18.4C8.53726 18.4 8 17.8627 8 17.2C8 16.6868 8.32251 16.2489 8.77574 16.0774C8.2955 15.5809 8 14.9046 8 14.1593C8 12.6354 9.23536 11.4 10.7593 11.4C10.9157 11.4 11.0691 11.413 11.2185 11.438C11.3776 10.0655 12.544 9 13.9593 9C15.3745 9 16.5409 10.0655 16.7 11.438C16.8494 11.413 17.0028 11.4 17.1593 11.4C18.6832 11.4 19.9185 12.6354 19.9185 14.1593Z" fill="white"/>
</svg>
